<svg width="18" height="21" viewBox="0 0 18 21" fill="none" xmlns="http://www.w3.org/2000/svg">
<path fill-rule="evenodd" clip-rule="evenodd" d="M5.43471 0.12618C5.57659 0.0299 5.75013 -0.00498019 5.9172 0.029205C6.08428 0.0633902 6.23121 0.163844 6.32571 0.30849L7.08557 1.47186C7.50457 1.37558 7.93278 1.32719 8.36229 1.32759H9.648C10.0869 1.32846 10.5124 1.37655 10.9247 1.47186L11.6846 0.30849C11.7301 0.234066 11.7898 0.169722 11.8602 0.119269C11.9306 0.0688168 12.0102 0.0332812 12.0942 0.0147669C12.1783 -0.00374743 12.2652 -0.0048639 12.3497 0.0114836C12.4342 0.0278311 12.5146 0.0613101 12.5862 0.109938C12.6578 0.158566 12.7191 0.221354 12.7664 0.294584C12.8138 0.367814 12.8463 0.449997 12.862 0.536265C12.8776 0.622534 12.8762 0.711135 12.8577 0.79682C12.8392 0.882506 12.804 0.963534 12.7543 1.03511L12.177 1.91911C13.6041 2.62737 14.7099 3.91271 15.1727 5.48661C15.4667 5.32866 15.7957 5.25087 16.1279 5.26078C16.46 5.2707 16.784 5.36799 17.0684 5.54322C17.3528 5.71845 17.5881 5.96567 17.7513 6.26092C17.9145 6.55617 18.0002 6.88943 18 7.22839V12.4747C18.0002 12.7895 17.9263 13.0998 17.7845 13.3795C17.6427 13.6591 17.4372 13.9 17.1853 14.0818C16.9334 14.2636 16.6423 14.3811 16.3366 14.4244C16.0309 14.4677 15.7195 14.4355 15.4286 14.3306V14.4421C15.4286 15.8848 14.2779 17.0653 12.8571 17.0653V19.0326C12.8568 19.5544 12.6533 20.0547 12.2914 20.4234C11.9294 20.7921 11.4388 20.999 10.9273 20.9987C10.4158 20.9983 9.92539 20.7907 9.56396 20.4215C9.20252 20.0523 8.99966 19.5518 9 19.03C9.00102 19.2888 8.95185 19.5452 8.85532 19.7845C8.75879 20.0238 8.61682 20.2413 8.43756 20.4244C8.25831 20.6075 8.04532 20.7526 7.81086 20.8514C7.5764 20.9502 7.3251 21.0007 7.07143 21C6.55994 21 6.0694 20.7927 5.70772 20.4238C5.34605 20.0548 5.14286 19.5544 5.14286 19.0326V17.0653C3.72857 17.0653 2.57143 15.8914 2.57143 14.4421V14.3306C2.28046 14.4355 1.96905 14.4677 1.66336 14.4244C1.35768 14.3811 1.06664 14.2636 0.814698 14.0818C0.562757 13.9 0.357274 13.6591 0.215509 13.3795C0.0737442 13.0998 -0.000161531 12.7895 2.90389e-07 12.4747V7.22839C-0.000182028 6.88943 0.0854887 6.55617 0.248707 6.26092C0.411925 5.96567 0.647153 5.71845 0.931586 5.54322C1.21602 5.36799 1.54001 5.2707 1.87214 5.26078C2.20428 5.25087 2.53329 5.32866 2.82729 5.48661C3.06064 4.71445 3.44694 3.99939 3.96224 3.38574C4.47754 2.77208 5.11087 2.2729 5.823 1.91911L5.24571 1.03511C5.15133 0.890377 5.11714 0.713343 5.15065 0.542909C5.18416 0.372474 5.28263 0.222585 5.42443 0.12618H5.43471ZM2.58043 12.4813V7.23495C2.58043 7.06102 2.5127 6.89422 2.39214 6.77124C2.27158 6.64825 2.10807 6.57916 1.93757 6.57916C1.76708 6.57916 1.60356 6.64825 1.483 6.77124C1.36244 6.89422 1.29471 7.06102 1.29471 7.23495V12.4813C1.29471 12.6552 1.36244 12.822 1.483 12.945C1.60356 13.068 1.76708 13.1371 1.93757 13.1371C2.10807 13.1371 2.27158 13.068 2.39214 12.945C2.5127 12.822 2.58043 12.6552 2.58043 12.4813ZM3.86614 7.23495C3.86614 7.40888 3.93387 7.57568 4.05443 7.69866C4.17499 7.82165 4.3385 7.89074 4.509 7.89074H13.509C13.6795 7.89074 13.843 7.82165 13.9636 7.69866C14.0841 7.57568 14.1519 7.40888 14.1519 7.23495C14.1519 4.7036 12.1333 2.64442 9.65186 2.64442H8.36614C5.88471 2.64442 3.86614 4.7036 3.86614 7.23495ZM15.4376 12.4813C15.4376 12.6552 15.5053 12.822 15.6259 12.945C15.7464 13.068 15.9099 13.1371 16.0804 13.1371C16.2509 13.1371 16.4144 13.068 16.535 12.945C16.6556 12.822 16.7233 12.6552 16.7233 12.4813V7.23495C16.7233 7.06102 16.6556 6.89422 16.535 6.77124C16.4144 6.64825 16.2509 6.57916 16.0804 6.57916C15.9099 6.57916 15.7464 6.64825 15.6259 6.77124C15.5053 6.89422 15.4376 7.06102 15.4376 7.23495V12.4813ZM14.1519 9.85811C14.1519 9.68419 14.0841 9.51738 13.9636 9.3944C13.843 9.27141 13.6795 9.20232 13.509 9.20232H4.509C4.3385 9.20232 4.17499 9.27141 4.05443 9.3944C3.93387 9.51738 3.86614 9.68419 3.86614 9.85811V14.4486C3.86614 14.7965 4.0016 15.1301 4.24272 15.3761C4.48384 15.622 4.81086 15.7602 5.15186 15.7602H5.79471C5.96521 15.7602 6.12872 15.8293 6.24928 15.9523C6.36984 16.0753 6.43757 16.2421 6.43757 16.416V19.0392C6.43757 19.2131 6.5053 19.3799 6.62586 19.5029C6.74642 19.6259 6.90993 19.695 7.08043 19.695C7.25092 19.695 7.41444 19.6259 7.535 19.5029C7.65556 19.3799 7.72329 19.2131 7.72329 19.0392V16.416C7.72329 16.2421 7.79102 16.0753 7.91157 15.9523C8.03213 15.8293 8.19565 15.7602 8.36614 15.7602H9.65186C9.82235 15.7602 9.98587 15.8293 10.1064 15.9523C10.227 16.0753 10.2947 16.2421 10.2947 16.416V19.0392C10.2947 19.2131 10.3624 19.3799 10.483 19.5029C10.6036 19.6259 10.7671 19.695 10.9376 19.695C11.1081 19.695 11.2716 19.6259 11.3921 19.5029C11.5127 19.3799 11.5804 19.2131 11.5804 19.0392V16.416C11.5804 16.2421 11.6482 16.0753 11.7687 15.9523C11.8893 15.8293 12.0528 15.7602 12.2233 15.7602H12.8661C13.2071 15.7602 13.5342 15.622 13.7753 15.3761C14.0164 15.1301 14.1519 14.7965 14.1519 14.4486V9.85811ZM7.72329 4.61179C7.72329 4.78571 7.65556 4.95252 7.535 5.0755C7.41444 5.19849 7.25092 5.26758 7.08043 5.26758C6.90993 5.26758 6.74642 5.19849 6.62586 5.0755C6.5053 4.95252 6.43757 4.78571 6.43757 4.61179C6.43757 4.43786 6.5053 4.27106 6.62586 4.14807C6.74642 4.02509 6.90993 3.956 7.08043 3.956C7.25092 3.956 7.41444 4.02509 7.535 4.14807C7.65556 4.27106 7.72329 4.43786 7.72329 4.61179ZM10.9376 5.26758C11.1081 5.26758 11.2716 5.19849 11.3921 5.0755C11.5127 4.95252 11.5804 4.78571 11.5804 4.61179C11.5804 4.43786 11.5127 4.27106 11.3921 4.14807C11.2716 4.02509 11.1081 3.956 10.9376 3.956C10.7671 3.956 10.6036 4.02509 10.483 4.14807C10.3624 4.27106 10.2947 4.43786 10.2947 4.61179C10.2947 4.78571 10.3624 4.95252 10.483 5.0755C10.6036 5.19849 10.7671 5.26758 10.9376 5.26758Z" fill="black"/>
</svg>
