<svg width="97" height="87" viewBox="0 0 97 87" fill="none" xmlns="http://www.w3.org/2000/svg">
<path d="M5.26572 23.9685C9.38512 16.7629 15.7022 10.7056 23.5116 6.47308C31.321 2.24057 40.3152 -0.000550218 49.4898 1.01326e-07C62.8273 1.01326e-07 74.0318 4.31085 82.5985 11.3317L68.4097 23.8076C63.2777 19.4967 56.7549 17.3 49.4898 17.3C36.5977 17.3 25.6852 24.956 21.8003 35.235C20.8105 37.845 20.2463 40.629 20.2463 43.5C20.2463 46.371 20.8105 49.155 21.8003 51.765C25.6902 62.0484 36.5977 69.7001 49.4898 69.7001C56.1462 69.7001 61.8128 68.1558 66.247 65.5458C68.8177 64.0581 71.0185 62.1277 72.7164 59.8712C74.4142 57.6147 75.5739 55.0791 76.1252 52.4175H49.4898V35.5917H96.0993C96.6833 38.4366 97 41.4033 97 44.4874C97 57.7375 91.6056 68.8909 82.2421 76.4599C74.0565 83.1068 62.852 87 49.4898 87C42.99 87.0023 36.5533 85.8787 30.5478 83.6934C24.5422 81.5081 19.0855 78.304 14.4894 74.2642C9.89336 70.2244 6.24806 65.4281 3.76189 60.1494C1.27572 54.8707 -0.00259753 49.2131 3.96272e-06 43.5C3.96272e-06 36.4791 1.91031 29.841 5.26572 23.9685Z" fill="black"/>
</svg>
