<svg width="177" height="55" viewBox="0 0 177 55" fill="none" xmlns="http://www.w3.org/2000/svg">
<path d="M114.077 40.8934C115.404 42.7607 112.616 50.4755 111.377 53.9152C111.006 54.9569 111.811 55.3795 112.661 54.5933C118.183 49.4632 119.599 38.7313 118.475 37.1785C117.351 35.6257 107.704 34.3088 101.828 38.9082C100.917 39.6059 101.067 40.5789 102.076 40.4511C105.395 40.0089 112.767 39.0261 114.077 40.8934ZM102.306 6.47651V2.00486C102.306 1.32675 102.775 0.87467 103.324 0.87467H121.333C121.909 0.87467 122.369 1.33657 122.369 2.00486V5.8377C122.369 6.4765 121.882 7.31186 121.015 8.63861L111.687 23.4294C115.156 23.3311 118.811 23.911 121.953 25.8765C122.661 26.3188 122.856 26.9674 122.918 27.6161V32.3825C122.918 33.0312 122.263 33.7879 121.59 33.3948C118.647 31.7119 115.383 30.8372 112.072 30.844C108.761 30.8509 105.5 31.739 102.563 33.4341C101.943 33.8076 101.288 33.0508 101.288 32.4022V27.8814C101.288 27.1542 101.288 25.9159 101.952 24.8053L112.749 7.6067H103.341C102.766 7.6067 102.297 7.14479 102.297 6.48633M36.6301 34.3383H31.1432C30.8985 34.3176 30.6679 34.2035 30.4904 34.0154C30.313 33.8273 30.1996 33.5767 30.1697 33.3063V2.08349C30.1697 1.45451 30.6387 0.963118 31.2316 0.963118H36.3381C36.8691 0.982774 37.2939 1.44468 37.3293 2.00486V6.08339H37.4267C38.7542 2.14245 41.2676 0.304662 44.6394 0.304662C48.0732 0.304662 50.2149 2.14245 51.7548 6.08339C52.3018 4.35402 53.3295 2.86239 54.6896 1.82374C56.0496 0.785087 57.6716 0.25314 59.3216 0.304662C60.5447 0.280469 61.7558 0.576613 62.8568 1.1691C63.9577 1.76158 64.9174 2.63374 65.6581 3.7149C67.3927 6.33892 67.0387 10.1619 67.0387 13.5034V33.2081C67.0365 33.3599 67.0071 33.5098 66.9524 33.6489C66.8976 33.7881 66.8186 33.9139 66.7199 34.019C66.6211 34.1241 66.5046 34.2064 66.3771 34.2612C66.2495 34.316 66.1135 34.3422 65.9768 34.3383H60.5074C60.2457 34.3191 59.9996 34.193 59.8166 33.9843C59.6336 33.7756 59.5266 33.4991 59.5163 33.2081V16.6581C59.5163 15.3412 59.6224 12.0587 59.3658 10.8106C58.9587 8.71724 57.7285 8.12757 56.1444 8.12757C54.8169 8.12757 53.4363 9.11035 52.8699 10.6828C52.3035 12.2552 52.3654 14.8891 52.3654 16.6581V33.2081C52.3632 33.3599 52.3338 33.5098 52.2791 33.6489C52.2243 33.7881 52.1453 33.9139 52.0466 34.019C51.9478 34.1241 51.8313 34.2064 51.7038 34.2612C51.5762 34.316 51.4402 34.3422 51.3034 34.3383H45.843C45.5807 34.3233 45.3333 34.1983 45.151 33.9885C44.9686 33.7786 44.8648 33.4997 44.8606 33.2081L44.8518 16.6581C44.8518 13.179 45.3651 8.05878 41.4799 8.05878C37.5417 8.05878 37.6922 13.0513 37.6922 16.6581V33.2081C37.6899 33.3599 37.6605 33.5098 37.6058 33.6489C37.551 33.7881 37.472 33.9139 37.3733 34.019C37.2745 34.1241 37.158 34.2064 37.0305 34.2612C36.9029 34.316 36.7669 34.3422 36.6301 34.3383ZM137.883 0.304662C146.007 0.304662 150.406 8.05878 150.406 17.916C150.406 27.4293 145.538 34.9869 137.874 34.9869C129.891 34.9869 125.546 27.2328 125.546 17.5819C125.546 7.85239 129.953 0.304662 137.883 0.304662ZM137.91 6.67306C133.874 6.67306 133.617 12.7859 133.617 16.5991C133.617 20.4123 133.564 28.5595 137.865 28.5595C142.113 28.5595 142.308 21.9749 142.308 17.975C142.308 15.3412 142.219 12.1963 141.494 9.70001C140.874 7.52807 139.653 6.67306 137.91 6.67306ZM160.946 34.3383H155.486C155.225 34.3167 154.982 34.1897 154.8 33.9812C154.619 33.7728 154.513 33.4975 154.503 33.2081L154.494 1.97539C154.525 1.6897 154.652 1.42725 154.848 1.23984C155.045 1.05244 155.297 0.953691 155.556 0.963118H160.627C160.852 0.975545 161.068 1.06696 161.243 1.22417C161.418 1.38138 161.543 1.59626 161.601 1.8378V6.60427H161.707C163.238 2.33901 165.389 0.304662 169.177 0.304662C171.628 0.304662 174.026 1.28744 175.566 3.98025C177 6.4765 177 10.6828 177 13.7097V33.3555C176.958 33.6331 176.827 33.8848 176.633 34.065C176.438 34.2453 176.191 34.3422 175.938 34.3383H170.451C170.213 34.3198 169.987 34.2127 169.811 34.0344C169.634 33.8561 169.517 33.617 169.477 33.3555V16.3927C169.477 12.9825 169.832 7.98998 166.053 7.98998C164.725 7.98998 163.486 8.97276 162.884 10.4862C162.114 12.3928 162.017 14.2896 162.017 16.3927V33.2081C162.005 33.514 161.887 33.8029 161.688 34.0138C161.488 34.2247 161.222 34.3411 160.946 34.3383ZM87.9602 19.4295V18.1126C83.9865 18.1126 79.8093 19.0462 79.8093 24.2353C79.8093 26.8593 81.0395 28.6381 83.1458 28.6381C84.6768 28.6381 86.0663 27.5866 86.9336 25.8765C88.0133 23.7734 87.9602 21.798 87.9602 19.4295ZM93.4826 34.2498C93.3056 34.416 93.0876 34.5191 92.857 34.5454C92.6265 34.5717 92.3941 34.52 92.1904 34.3972C90.3673 32.7265 90.0399 31.9403 89.0399 30.3384C86.0309 33.7486 83.9069 34.7608 80.0129 34.7608C75.402 34.7608 71.8177 31.616 71.8177 25.2869C71.8177 20.3533 74.2161 16.9824 77.6588 15.3412C80.6324 13.8867 84.783 13.6311 87.9602 13.2282V12.442C87.9602 10.9973 88.0487 9.28725 87.2876 8.03912C86.6238 6.91875 85.3406 6.45685 84.2078 6.45685C82.128 6.45685 80.2695 7.63618 79.8093 10.103C79.7208 10.6533 79.3579 11.1938 78.8535 11.2233L73.5435 10.5845C73.101 10.4764 72.5966 10.0735 72.7293 9.3069C73.9506 2.16211 79.7739 0 84.9865 0C87.6415 0 91.1284 0.786222 93.2347 3.03678C95.8986 5.78856 95.642 9.48381 95.642 13.4935V22.9774C95.642 25.8274 96.7039 27.0755 97.7129 28.6185C98.058 29.159 98.1376 29.8175 97.6863 30.2302C96.5712 31.272 94.5888 33.1884 93.4914 34.2695L93.4826 34.2498ZM16.1424 19.4295V18.1126C12.1776 18.1126 8.0004 19.0462 8.0004 24.2353C8.0004 26.8593 9.2217 28.6381 11.328 28.6381C12.8679 28.6381 14.2485 27.5866 15.1158 25.8765C16.1955 23.7734 16.1424 21.798 16.1424 19.4295ZM21.6648 34.2498C21.4879 34.416 21.2698 34.5191 21.0393 34.5454C20.8087 34.5717 20.5764 34.52 20.3727 34.3972C18.5496 32.7265 18.231 31.9403 17.2309 30.3384C14.2219 33.7486 12.098 34.7608 8.20395 34.7608C3.5931 34.7608 0 31.616 0 25.2869C0 20.3533 2.4072 16.9824 5.841 15.3412C8.8146 13.8867 12.9652 13.6311 16.1424 13.2282V12.442C16.1424 10.9973 16.2398 9.28725 15.4787 8.03912C14.8061 6.91875 13.5316 6.45685 12.4077 6.45685C10.3191 6.45685 8.45175 7.63618 8.0004 10.103C7.9119 10.6533 7.5402 11.1938 7.05345 11.2233L1.7346 10.5845C1.2921 10.4764 0.796501 10.0735 0.920401 9.3069C2.1417 2.16211 7.95615 0 13.1688 0C15.8327 0 19.3195 0.786222 21.417 3.03678C24.0809 5.78856 23.833 9.48381 23.833 13.4935V22.9774C23.833 25.8274 24.8951 27.0755 25.8951 28.6185C26.2491 29.159 26.3287 29.8175 25.8774 30.2302C24.7623 31.272 22.7799 33.1884 21.6825 34.2695L21.6648 34.2498Z" fill="black"/>
</svg>
