<svg width="19" height="18" viewBox="0 0 19 18" fill="none" xmlns="http://www.w3.org/2000/svg">
<path d="M16.0446 0C16.5765 0 17.0866 0.210714 17.4627 0.585786C17.8388 0.960859 18.0501 1.46957 18.0501 2V16C18.0501 16.5304 17.8388 17.0391 17.4627 17.4142C17.0866 17.7893 16.5765 18 16.0446 18H2.00557C1.47366 18 0.963535 17.7893 0.587418 17.4142C0.211301 17.0391 0 16.5304 0 16V2C0 1.46957 0.211301 0.960859 0.587418 0.585786C0.963535 0.210714 1.47366 0 2.00557 0H16.0446ZM15.5432 15.5V10.2C15.5432 9.33539 15.1988 8.5062 14.5857 7.89483C13.9726 7.28346 13.1411 6.94 12.2741 6.94C11.4217 6.94 10.429 7.46 9.94763 8.24V7.13H7.14986V15.5H9.94763V10.57C9.94763 9.8 10.5694 9.17 11.3415 9.17C11.7138 9.17 12.0709 9.3175 12.3342 9.58005C12.5975 9.8426 12.7454 10.1987 12.7454 10.57V15.5H15.5432ZM3.89081 5.56C4.33761 5.56 4.76612 5.383 5.08206 5.06794C5.39799 4.75288 5.57549 4.32556 5.57549 3.88C5.57549 2.95 4.8234 2.19 3.89081 2.19C3.44134 2.19 3.01029 2.36805 2.69247 2.68499C2.37465 3.00193 2.1961 3.43178 2.1961 3.88C2.1961 4.81 2.95822 5.56 3.89081 5.56ZM5.28468 15.5V7.13H2.50696V15.5H5.28468Z" fill="white"/>
</svg>
