<svg width="9" height="9" viewBox="0 0 9 9" fill="none" xmlns="http://www.w3.org/2000/svg">
<path d="M4.49978 7.53974L2.31845 8.91561C2.22208 8.97981 2.12134 9.00733 2.01622 8.99816C1.91109 8.98899 1.81911 8.9523 1.74027 8.88809C1.66142 8.82388 1.6001 8.74372 1.5563 8.64759C1.5125 8.55146 1.50374 8.44359 1.53002 8.32399L2.1082 5.7236L0.176543 3.97625C0.0889399 3.8937 0.0342753 3.79959 0.0125496 3.69392C-0.00917605 3.58826 -0.00269342 3.48516 0.0319976 3.38463C0.0666886 3.2841 0.119251 3.20155 0.189684 3.13697C0.260117 3.0724 0.356481 3.03112 0.478775 3.01314L3.02804 2.77925L4.01358 0.330208C4.05738 0.220139 4.12536 0.137586 4.21752 0.0825518C4.30968 0.0275172 4.40376 0 4.49978 0C4.59579 0 4.68988 0.0275172 4.78203 0.0825518C4.87419 0.137586 4.94217 0.220139 4.98598 0.330208L5.97152 2.77925L8.52078 3.01314C8.64342 3.03149 8.73979 3.07277 8.80987 3.13697C8.87995 3.20118 8.93251 3.28373 8.96755 3.38463C9.0026 3.48553 9.00925 3.58881 8.98753 3.69447C8.9658 3.80014 8.91096 3.89407 8.82301 3.97625L6.89135 5.7236L7.46953 8.32399C7.49582 8.44323 7.48706 8.55109 7.44325 8.64759C7.39945 8.74408 7.33813 8.82425 7.25929 8.88809C7.18044 8.95193 7.08846 8.98862 6.98334 8.99816C6.87821 9.0077 6.77747 8.98018 6.6811 8.91561L4.49978 7.53974Z" fill="#FFD65D"/>
</svg>
