<svg width="18" height="22" viewBox="0 0 18 22" fill="none" xmlns="http://www.w3.org/2000/svg">
<path d="M16.7144 7.66085C16.597 7.75195 14.5231 8.91995 14.5231 11.5171C14.5231 14.5211 17.1618 15.5849 17.2407 15.6112C17.2286 15.676 16.8217 17.0666 15.85 18.4836C14.9826 19.7306 14.0788 20.9755 12.7023 20.9755C11.3248 20.9755 10.9705 20.1759 9.38148 20.1759C7.83292 20.1759 7.28232 21.0018 6.02322 21.0018C4.76412 21.0018 3.88458 19.848 2.87548 18.431C1.70342 16.767 0.759102 14.18 0.759102 11.7276C0.759102 7.79243 3.31778 5.70541 5.83699 5.70541C7.17503 5.70541 8.2904 6.58394 9.13047 6.58394C9.93006 6.58394 11.177 5.65278 12.6993 5.65278C13.2762 5.65278 15.349 5.7044 16.7144 7.66085ZM11.9776 3.9868C12.6061 3.23883 13.0515 2.20241 13.0515 1.16598C13.0524 1.0294 13.0395 0.893083 13.013 0.759102C11.9887 0.797563 10.7701 1.44128 10.0353 2.2935C9.45841 2.94936 8.91995 3.98579 8.91995 5.03639C8.91995 5.19428 8.94627 5.35217 8.95841 5.40278C9.02319 5.41492 9.12845 5.42909 9.23371 5.42909C10.1527 5.42909 11.3086 4.81372 11.9766 3.98579L11.9776 3.9868Z" stroke="black" stroke-width="1.5" stroke-miterlimit="10" stroke-linejoin="round"/>
</svg>
