<svg width="15" height="20" viewBox="0 0 15 20" fill="none" xmlns="http://www.w3.org/2000/svg">
<path d="M7.0195 9.5C6.35461 9.5 5.71695 9.23661 5.24681 8.76777C4.77666 8.29893 4.51254 7.66304 4.51254 7C4.51254 6.33696 4.77666 5.70107 5.24681 5.23223C5.71695 4.76339 6.35461 4.5 7.0195 4.5C7.68439 4.5 8.32204 4.76339 8.79219 5.23223C9.26234 5.70107 9.52646 6.33696 9.52646 7C9.52646 7.3283 9.46162 7.65339 9.33563 7.95671C9.20965 8.26002 9.02498 8.53562 8.79219 8.76777C8.5594 8.99991 8.28303 9.18406 7.97887 9.3097C7.67471 9.43534 7.34872 9.5 7.0195 9.5ZM7.0195 0C5.15781 0 3.37238 0.737498 2.05596 2.05025C0.739552 3.36301 0 5.14348 0 7C0 12.25 7.0195 20 7.0195 20C7.0195 20 14.039 12.25 14.039 7C14.039 5.14348 13.2994 3.36301 11.983 2.05025C10.6666 0.737498 8.88119 0 7.0195 0Z" fill="white"/>
</svg>
