<svg width="14" height="11" viewBox="0 0 14 11" fill="none" xmlns="http://www.w3.org/2000/svg">
<path d="M7.79314 0.292791C7.98067 0.105317 8.23498 0 8.50015 0C8.76532 0 9.01963 0.105317 9.20716 0.292791L13.7072 4.79287C13.8947 4.9804 14 5.23471 14 5.49988C14 5.76505 13.8947 6.01936 13.7072 6.20689L9.20716 10.707C9.01855 10.8891 8.76595 10.9899 8.50375 10.9877C8.24155 10.9854 7.99073 10.8802 7.80532 10.6948C7.61991 10.5094 7.51474 10.2586 7.51246 9.99636C7.51018 9.73416 7.61097 9.48155 7.79314 9.29295L10.5002 6.4999H1.00002C0.734796 6.4999 0.480438 6.39454 0.292898 6.207C0.105359 6.01946 0 5.7651 0 5.49988C0 5.23466 0.105359 4.9803 0.292898 4.79276C0.480438 4.60522 0.734796 4.49986 1.00002 4.49986H10.5002L7.79314 1.70682C7.60566 1.51929 7.50034 1.26497 7.50034 0.999804C7.50034 0.734635 7.60566 0.480322 7.79314 0.292791Z" fill="white"/>
</svg>
