<svg width="39" height="33" viewBox="0 0 39 33" fill="none" xmlns="http://www.w3.org/2000/svg">
<mask id="path-1-inside-1_0_119" fill="white">
<path d="M17.7274 16.4988C17.7274 16.7781 17.6153 17.046 17.4159 17.2434C17.2164 17.4409 16.9458 17.5519 16.6637 17.5519H8.1546C7.8725 17.5519 7.60196 17.4409 7.40249 17.2434C7.20302 17.046 7.09095 16.7781 7.09095 16.4988C7.09095 16.2195 7.20302 15.9516 7.40249 15.7541C7.60196 15.5566 7.8725 15.4457 8.1546 15.4457H16.6637C16.9458 15.4457 17.2164 15.5566 17.4159 15.7541C17.6153 15.9516 17.7274 16.2195 17.7274 16.4988ZM16.6637 9.82906H8.1546C7.8725 9.82906 7.60196 9.94002 7.40249 10.1375C7.20302 10.335 7.09095 10.6029 7.09095 10.8822C7.09095 11.1615 7.20302 11.4293 7.40249 11.6268C7.60196 11.8243 7.8725 11.9353 8.1546 11.9353H16.6637C16.9458 11.9353 17.2164 11.8243 17.4159 11.6268C17.6153 11.4293 17.7274 11.1615 17.7274 10.8822C17.7274 10.6029 17.6153 10.335 17.4159 10.1375C17.2164 9.94002 16.9458 9.82906 16.6637 9.82906ZM36.1639 20.8201V31.9445C36.1643 32.1295 36.1155 32.3114 36.0223 32.4719C35.9291 32.6323 35.7949 32.7656 35.6331 32.8583C35.4713 32.951 35.2878 32.9999 35.1008 33C34.9139 33.0001 34.7303 32.9514 34.5684 32.8589L30.1366 30.349L25.7047 32.8589C25.5428 32.9514 25.3592 33.0001 25.1723 33C24.9854 32.9999 24.8018 32.951 24.64 32.8583C24.4782 32.7656 24.344 32.6323 24.2508 32.4719C24.1576 32.3114 24.1088 32.1295 24.1092 31.9445V27.381H2.48183C1.82361 27.381 1.19235 27.1221 0.726912 26.6612C0.261478 26.2004 0 25.5754 0 24.9237V2.45727C0 1.80556 0.261478 1.18054 0.726912 0.719717C1.19235 0.25889 1.82361 0 2.48183 0H33.682C34.3403 0 34.9715 0.25889 35.437 0.719717C35.9024 1.18054 36.1639 1.80556 36.1639 2.45727V7.96505C37.0583 8.78516 37.772 9.77943 38.26 10.8855C38.7481 11.9916 39 13.1855 39 14.3926C39 15.5996 38.7481 16.7936 38.26 17.8996C37.772 19.0057 37.0583 20 36.1639 20.8201ZM30.1366 7.72284C28.8042 7.72284 27.5018 8.11401 26.394 8.84688C25.2862 9.57976 24.4228 10.6214 23.9129 11.8402C23.4031 13.0589 23.2697 14.4 23.5296 15.6938C23.7895 16.9876 24.4311 18.176 25.3732 19.1088C26.3153 20.0415 27.5156 20.6768 28.8223 20.9341C30.1291 21.1915 31.4836 21.0594 32.7145 20.5546C33.9454 20.0498 34.9975 19.1949 35.7377 18.0981C36.4779 17.0012 36.873 15.7117 36.873 14.3926C36.873 12.6236 36.1632 10.9272 34.8999 9.67635C33.6366 8.42554 31.9232 7.72284 30.1366 7.72284ZM24.1092 25.2747V20.8201C22.5572 19.386 21.5766 17.448 21.3457 15.3585C21.1148 13.2691 21.649 11.167 22.8512 9.43456C24.0533 7.70212 25.8435 6.45441 27.8962 5.91835C29.949 5.38228 32.1278 5.59347 34.0366 6.51351V2.45727C34.0366 2.36416 33.9992 2.27488 33.9327 2.20904C33.8662 2.14321 33.7761 2.10623 33.682 2.10623H2.48183C2.3878 2.10623 2.29762 2.14321 2.23113 2.20904C2.16464 2.27488 2.12729 2.36416 2.12729 2.45727V24.9237C2.12729 25.0168 2.16464 25.1061 2.23113 25.1719C2.29762 25.2377 2.3878 25.2747 2.48183 25.2747H24.1092ZM34.0366 22.2716C32.8229 22.8617 31.4887 23.1686 30.1366 23.1686C28.7844 23.1686 27.4502 22.8617 26.2365 22.2716V30.1296L29.6047 28.2217C29.7664 28.1293 29.9498 28.0806 30.1366 28.0806C30.3233 28.0806 30.5067 28.1293 30.6684 28.2217L34.0366 30.1296V22.2716Z"/>
</mask>
<path d="M17.7274 16.4988C17.7274 16.7781 17.6153 17.046 17.4159 17.2434C17.2164 17.4409 16.9458 17.5519 16.6637 17.5519H8.1546C7.8725 17.5519 7.60196 17.4409 7.40249 17.2434C7.20302 17.046 7.09095 16.7781 7.09095 16.4988C7.09095 16.2195 7.20302 15.9516 7.40249 15.7541C7.60196 15.5566 7.8725 15.4457 8.1546 15.4457H16.6637C16.9458 15.4457 17.2164 15.5566 17.4159 15.7541C17.6153 15.9516 17.7274 16.2195 17.7274 16.4988ZM16.6637 9.82906H8.1546C7.8725 9.82906 7.60196 9.94002 7.40249 10.1375C7.20302 10.335 7.09095 10.6029 7.09095 10.8822C7.09095 11.1615 7.20302 11.4293 7.40249 11.6268C7.60196 11.8243 7.8725 11.9353 8.1546 11.9353H16.6637C16.9458 11.9353 17.2164 11.8243 17.4159 11.6268C17.6153 11.4293 17.7274 11.1615 17.7274 10.8822C17.7274 10.6029 17.6153 10.335 17.4159 10.1375C17.2164 9.94002 16.9458 9.82906 16.6637 9.82906ZM36.1639 20.8201V31.9445C36.1643 32.1295 36.1155 32.3114 36.0223 32.4719C35.9291 32.6323 35.7949 32.7656 35.6331 32.8583C35.4713 32.951 35.2878 32.9999 35.1008 33C34.9139 33.0001 34.7303 32.9514 34.5684 32.8589L30.1366 30.349L25.7047 32.8589C25.5428 32.9514 25.3592 33.0001 25.1723 33C24.9854 32.9999 24.8018 32.951 24.64 32.8583C24.4782 32.7656 24.344 32.6323 24.2508 32.4719C24.1576 32.3114 24.1088 32.1295 24.1092 31.9445V27.381H2.48183C1.82361 27.381 1.19235 27.1221 0.726912 26.6612C0.261478 26.2004 0 25.5754 0 24.9237V2.45727C0 1.80556 0.261478 1.18054 0.726912 0.719717C1.19235 0.25889 1.82361 0 2.48183 0H33.682C34.3403 0 34.9715 0.25889 35.437 0.719717C35.9024 1.18054 36.1639 1.80556 36.1639 2.45727V7.96505C37.0583 8.78516 37.772 9.77943 38.26 10.8855C38.7481 11.9916 39 13.1855 39 14.3926C39 15.5996 38.7481 16.7936 38.26 17.8996C37.772 19.0057 37.0583 20 36.1639 20.8201ZM30.1366 7.72284C28.8042 7.72284 27.5018 8.11401 26.394 8.84688C25.2862 9.57976 24.4228 10.6214 23.9129 11.8402C23.4031 13.0589 23.2697 14.4 23.5296 15.6938C23.7895 16.9876 24.4311 18.176 25.3732 19.1088C26.3153 20.0415 27.5156 20.6768 28.8223 20.9341C30.1291 21.1915 31.4836 21.0594 32.7145 20.5546C33.9454 20.0498 34.9975 19.1949 35.7377 18.0981C36.4779 17.0012 36.873 15.7117 36.873 14.3926C36.873 12.6236 36.1632 10.9272 34.8999 9.67635C33.6366 8.42554 31.9232 7.72284 30.1366 7.72284ZM24.1092 25.2747V20.8201C22.5572 19.386 21.5766 17.448 21.3457 15.3585C21.1148 13.2691 21.649 11.167 22.8512 9.43456C24.0533 7.70212 25.8435 6.45441 27.8962 5.91835C29.949 5.38228 32.1278 5.59347 34.0366 6.51351V2.45727C34.0366 2.36416 33.9992 2.27488 33.9327 2.20904C33.8662 2.14321 33.7761 2.10623 33.682 2.10623H2.48183C2.3878 2.10623 2.29762 2.14321 2.23113 2.20904C2.16464 2.27488 2.12729 2.36416 2.12729 2.45727V24.9237C2.12729 25.0168 2.16464 25.1061 2.23113 25.1719C2.29762 25.2377 2.3878 25.2747 2.48183 25.2747H24.1092ZM34.0366 22.2716C32.8229 22.8617 31.4887 23.1686 30.1366 23.1686C28.7844 23.1686 27.4502 22.8617 26.2365 22.2716V30.1296L29.6047 28.2217C29.7664 28.1293 29.9498 28.0806 30.1366 28.0806C30.3233 28.0806 30.5067 28.1293 30.6684 28.2217L34.0366 30.1296V22.2716Z" fill="#3F3F3F"/>
<path d="M36.1639 20.8201L34.1365 18.6088L33.1639 19.5006V20.8201H36.1639ZM36.1639 31.9445H33.1639L33.1639 31.9515L36.1639 31.9445ZM34.5684 32.8589L36.0572 30.2544L36.0468 30.2485L34.5684 32.8589ZM30.1366 30.349L31.6149 27.7386L30.1366 26.9013L28.6582 27.7386L30.1366 30.349ZM25.7047 32.8589L24.2263 30.2485L24.2159 30.2544L25.7047 32.8589ZM24.1092 31.9445L27.1092 31.9515V31.9445H24.1092ZM24.1092 27.381H27.1092V24.381H24.1092V27.381ZM2.48183 27.381V24.381V27.381ZM33.682 0V-3V0ZM36.1639 7.96505H33.1639V9.28456L34.1365 10.1763L36.1639 7.96505ZM30.1366 7.72284V4.72284V7.72284ZM24.1092 25.2747V28.2747H27.1092V25.2747H24.1092ZM24.1092 20.8201H27.1092V19.5075L26.1452 18.6167L24.1092 20.8201ZM34.0366 6.51351L32.734 9.21596L37.0366 11.2899V6.51351H34.0366ZM34.0366 22.2716H37.0366V17.4771L32.7248 19.5736L34.0366 22.2716ZM30.1366 23.1686V20.1686V23.1686ZM26.2365 22.2716L27.5483 19.5736L23.2365 17.4771V22.2716H26.2365ZM26.2365 30.1296H23.2365V35.2768L27.7151 32.7399L26.2365 30.1296ZM29.6047 28.2217L31.0833 30.832L31.0936 30.8262L29.6047 28.2217ZM30.6684 28.2217L29.1795 30.8262L29.1898 30.832L30.6684 28.2217ZM34.0366 30.1296L32.558 32.7399L37.0366 35.2768V30.1296H34.0366ZM17.7274 16.4988H14.7274C14.7274 15.9728 14.9387 15.4744 15.3051 15.1116L17.4159 17.2434L19.5266 19.3753C20.2919 18.6175 20.7274 17.5834 20.7274 16.4988H17.7274ZM17.4159 17.2434L15.3051 15.1116C15.6705 14.7498 16.1598 14.5519 16.6637 14.5519V17.5519V20.5519C17.7319 20.5519 18.7623 20.1321 19.5266 19.3753L17.4159 17.2434ZM16.6637 17.5519V14.5519H8.1546V17.5519V20.5519H16.6637V17.5519ZM8.1546 17.5519V14.5519C8.65857 14.5519 9.14785 14.7498 9.51323 15.1116L7.40249 17.2434L5.29175 19.3753C6.05607 20.1321 7.08643 20.5519 8.1546 20.5519V17.5519ZM7.40249 17.2434L9.51323 15.1116C9.87962 15.4744 10.091 15.9728 10.091 16.4988H7.09095H4.09095C4.09095 17.5834 4.52641 18.6175 5.29175 19.3753L7.40249 17.2434ZM7.09095 16.4988H10.091C10.091 17.0248 9.87962 17.5232 9.51323 17.886L7.40249 15.7541L5.29175 13.6223C4.52641 14.38 4.09095 15.4141 4.09095 16.4988H7.09095ZM7.40249 15.7541L9.51323 17.886C9.14785 18.2477 8.65857 18.4457 8.1546 18.4457V15.4457V12.4457C7.08643 12.4457 6.05607 12.8655 5.29175 13.6223L7.40249 15.7541ZM8.1546 15.4457V18.4457H16.6637V15.4457V12.4457H8.1546V15.4457ZM16.6637 15.4457V18.4457C16.1598 18.4457 15.6705 18.2477 15.3051 17.886L17.4159 15.7541L19.5266 13.6223C18.7623 12.8655 17.7319 12.4457 16.6637 12.4457V15.4457ZM17.4159 15.7541L15.3051 17.886C14.9387 17.5232 14.7274 17.0248 14.7274 16.4988H17.7274H20.7274C20.7274 15.4141 20.2919 14.38 19.5266 13.6223L17.4159 15.7541ZM16.6637 9.82906V6.82906H8.1546V9.82906V12.8291H16.6637V9.82906ZM8.1546 9.82906V6.82906C7.08642 6.82906 6.05607 7.24891 5.29175 8.00567L7.40249 10.1375L9.51323 12.2694C9.14785 12.6311 8.65858 12.8291 8.1546 12.8291V9.82906ZM7.40249 10.1375L5.29175 8.00567C4.52642 8.76342 4.09095 9.79753 4.09095 10.8822H7.09095H10.091C10.091 11.4082 9.87962 11.9066 9.51323 12.2694L7.40249 10.1375ZM7.09095 10.8822H4.09095C4.09095 11.9668 4.52642 13.0009 5.29175 13.7587L7.40249 11.6268L9.51323 9.49499C9.87962 9.85775 10.091 10.3561 10.091 10.8822H7.09095ZM7.40249 11.6268L5.29175 13.7587C6.05607 14.5154 7.08642 14.9353 8.1546 14.9353V11.9353V8.93529C8.65858 8.93529 9.14785 9.13323 9.51323 9.49499L7.40249 11.6268ZM8.1546 11.9353V14.9353H16.6637V11.9353V8.93529H8.1546V11.9353ZM16.6637 11.9353V14.9353C17.7319 14.9353 18.7623 14.5154 19.5266 13.7587L17.4159 11.6268L15.3051 9.49499C15.6705 9.13323 16.1598 8.93529 16.6637 8.93529V11.9353ZM17.4159 11.6268L19.5266 13.7587C20.2919 13.0009 20.7274 11.9668 20.7274 10.8822H17.7274H14.7274C14.7274 10.3561 14.9387 9.85775 15.3051 9.49499L17.4159 11.6268ZM17.7274 10.8822H20.7274C20.7274 9.79753 20.2919 8.76342 19.5266 8.00567L17.4159 10.1375L15.3051 12.2694C14.9387 11.9066 14.7274 11.4082 14.7274 10.8822H17.7274ZM17.4159 10.1375L19.5266 8.00567C18.7623 7.24891 17.7319 6.82906 16.6637 6.82906V9.82906V12.8291C16.1598 12.8291 15.6705 12.6311 15.3051 12.2694L17.4159 10.1375ZM36.1639 20.8201H33.1639V31.9445H36.1639H39.1639V20.8201H36.1639ZM36.1639 31.9445L33.1639 31.9515C33.1631 31.6035 33.255 31.2632 33.4281 30.9652L36.0223 32.4719L38.6165 33.9786C38.976 33.3596 39.1655 32.6555 39.1639 31.9375L36.1639 31.9445ZM36.0223 32.4719L33.4281 30.9652C33.6011 30.6673 33.8481 30.4236 34.1413 30.2555L35.6331 32.8583L37.1249 35.4611C37.7417 35.1076 38.2572 34.5972 38.6165 33.9786L36.0223 32.4719ZM35.6331 32.8583L34.1413 30.2555C34.4343 30.0876 34.7646 30.0002 35.0991 30L35.1008 33L35.1025 36C35.8109 35.9996 36.5084 35.8145 37.1249 35.4611L35.6331 32.8583ZM35.1008 33L35.0991 30C35.4337 29.9998 35.764 30.0868 36.0572 30.2544L34.5684 32.8589L33.0796 35.4634C33.6965 35.8161 34.3942 36.0004 35.1025 36L35.1008 33ZM34.5684 32.8589L36.0468 30.2485L31.6149 27.7386L30.1366 30.349L28.6582 32.9594L33.09 35.4693L34.5684 32.8589ZM30.1366 30.349L28.6582 27.7386L24.2263 30.2485L25.7047 32.8589L27.1831 35.4693L31.6149 32.9594L30.1366 30.349ZM25.7047 32.8589L24.2159 30.2544C24.5091 30.0868 24.8394 29.9998 25.174 30L25.1723 33L25.1706 36C25.8789 36.0004 26.5766 35.8161 27.1935 35.4634L25.7047 32.8589ZM25.1723 33L25.174 30C25.5085 30.0002 25.8388 30.0876 26.1318 30.2555L24.64 32.8583L23.1482 35.4611C23.7647 35.8145 24.4622 35.9996 25.1706 36L25.1723 33ZM24.64 32.8583L26.1318 30.2555C26.425 30.4236 26.672 30.6673 26.845 30.9652L24.2508 32.4719L21.6566 33.9786C22.016 34.5972 22.5314 35.1076 23.1482 35.4611L24.64 32.8583ZM24.2508 32.4719L26.845 30.9652C27.0181 31.2632 27.11 31.6035 27.1092 31.9515L24.1092 31.9445L21.1093 31.9375C21.1076 32.6555 21.2972 33.3596 21.6566 33.9786L24.2508 32.4719ZM24.1092 31.9445H27.1092V27.381H24.1092H21.1092V31.9445H24.1092ZM24.1092 27.381V24.381H2.48183V27.381V30.381H24.1092V27.381ZM2.48183 27.381V24.381C2.60969 24.381 2.73824 24.431 2.83765 24.5294L0.726912 26.6612L-1.38383 28.7931C-0.353546 29.8132 1.03754 30.381 2.48183 30.381V27.381ZM0.726912 26.6612L2.83765 24.5294C2.93808 24.6288 3 24.7701 3 24.9237H0H-3C-3 26.3807 -2.41512 27.772 -1.38383 28.7931L0.726912 26.6612ZM0 24.9237H3V2.45727H0H-3V24.9237H0ZM0 2.45727H3C3 2.61089 2.93808 2.75213 2.83765 2.85156L0.726912 0.719717L-1.38383 -1.41213C-2.41512 -0.391044 -3 1.00022 -3 2.45727H0ZM0.726912 0.719717L2.83765 2.85156C2.73824 2.95 2.60968 3 2.48183 3V0V-3C1.03754 -3 -0.353544 -2.43222 -1.38383 -1.41213L0.726912 0.719717ZM2.48183 0V3H33.682V0V-3H2.48183V0ZM33.682 0V3C33.5542 3 33.4256 2.94999 33.3262 2.85156L35.437 0.719717L37.5477 -1.41213C36.5174 -2.43221 35.1263 -3 33.682 -3V0ZM35.437 0.719717L33.3262 2.85156C33.2258 2.75213 33.1639 2.6109 33.1639 2.45727H36.1639H39.1639C39.1639 1.00022 38.579 -0.391045 37.5477 -1.41213L35.437 0.719717ZM36.1639 2.45727H33.1639V7.96505H36.1639H39.1639V2.45727H36.1639ZM36.1639 7.96505L34.1365 10.1763C34.7265 10.7173 35.1953 11.3714 35.5153 12.0966L38.26 10.8855L41.0047 9.6744C40.3486 8.18749 39.3902 6.85305 38.1913 5.75381L36.1639 7.96505ZM38.26 10.8855L35.5153 12.0966C35.8353 12.8217 36 13.6033 36 14.3926H39H42C42 12.7678 41.6608 11.1614 41.0047 9.6744L38.26 10.8855ZM39 14.3926H36C36 15.1818 35.8353 15.9634 35.5153 16.6885L38.26 17.8996L41.0047 19.1107C41.6608 17.6237 42 16.0173 42 14.3926H39ZM38.26 17.8996L35.5153 16.6885C35.1953 17.4137 34.7265 18.0679 34.1365 18.6088L36.1639 20.8201L38.1913 23.0313C39.3902 21.9321 40.3486 20.5976 41.0047 19.1107L38.26 17.8996ZM30.1366 7.72284V4.72284C28.2175 4.72284 26.3391 5.28613 24.7388 6.34486L26.394 8.84688L28.0493 11.3489C28.6645 10.9419 29.391 10.7228 30.1366 10.7228V7.72284ZM26.394 8.84688L24.7388 6.34486C23.1381 7.4038 21.886 8.91206 21.1454 10.6823L23.9129 11.8402L26.6805 12.998C26.9596 12.3308 27.4343 11.7557 28.0493 11.3489L26.394 8.84688ZM23.9129 11.8402L21.1454 10.6823C20.4046 12.4529 20.2103 14.403 20.5884 16.2847L23.5296 15.6938L26.4708 15.1029C26.329 14.3969 26.4015 13.6649 26.6805 12.998L23.9129 11.8402ZM23.5296 15.6938L20.5884 16.2847C20.9663 18.1661 21.8986 19.8902 23.2625 21.2406L25.3732 19.1088L27.4839 16.9769C26.9636 16.4617 26.6127 15.809 26.4708 15.1029L23.5296 15.6938ZM25.3732 19.1088L23.2625 21.2406C24.626 22.5907 26.3597 23.5067 28.2427 23.8776L28.8223 20.9341L29.402 17.9907C28.6715 17.8468 28.0046 17.4924 27.4839 16.9769L25.3732 19.1088ZM28.8223 20.9341L28.2427 23.8776C30.1255 24.2484 32.0774 24.0583 33.8528 23.3302L32.7145 20.5546L31.5761 17.7789C30.8897 18.0604 30.1327 18.1346 29.402 17.9907L28.8223 20.9341ZM32.7145 20.5546L33.8528 23.3302C35.6285 22.602 37.151 21.3668 38.2244 19.7762L35.7377 18.0981L33.251 16.4199C32.844 17.023 32.2623 17.4975 31.5761 17.7789L32.7145 20.5546ZM35.7377 18.0981L38.2244 19.7762C39.298 18.1853 39.873 16.3117 39.873 14.3926H36.873H33.873C33.873 15.1117 33.6577 15.8171 33.251 16.4199L35.7377 18.0981ZM36.873 14.3926H39.873C39.873 11.8183 38.8398 9.35558 37.0107 7.54451L34.8999 9.67635L32.7892 11.8082C33.4866 12.4988 33.873 13.429 33.873 14.3926H36.873ZM34.8999 9.67635L37.0107 7.54451C35.1825 5.73443 32.7092 4.72284 30.1366 4.72284V7.72284V10.7228C31.1371 10.7228 32.0907 11.1166 32.7892 11.8082L34.8999 9.67635ZM24.1092 25.2747H27.1092V20.8201H24.1092H21.1092V25.2747H24.1092ZM24.1092 20.8201L26.1452 18.6167C25.1208 17.6701 24.4786 16.3962 24.3275 15.029L21.3457 15.3585L18.3638 15.688C18.6745 18.4997 19.9936 21.1018 22.0733 23.0234L24.1092 20.8201ZM21.3457 15.3585L24.3275 15.029C24.1765 13.6621 24.5253 12.2841 25.3159 11.1448L22.8512 9.43456L20.3864 7.72427C18.7727 10.0499 18.0531 12.8761 18.3638 15.688L21.3457 15.3585ZM22.8512 9.43456L25.3159 11.1448C26.107 10.0048 27.2899 9.17731 28.6543 8.821L27.8962 5.91835L27.1382 3.01569C24.3972 3.73151 21.9996 5.39944 20.3864 7.72427L22.8512 9.43456ZM27.8962 5.91835L28.6543 8.821C30.0191 8.46459 31.4675 8.60549 32.734 9.21596L34.0366 6.51351L35.3392 3.81106C32.7882 2.58146 29.8789 2.29998 27.1382 3.01569L27.8962 5.91835ZM34.0366 6.51351H37.0366V2.45727H34.0366H31.0366V6.51351H34.0366ZM34.0366 2.45727H37.0366C37.0366 1.55884 36.6758 0.703296 36.0435 0.0771981L33.9327 2.20904L31.822 4.34089C31.3226 3.84646 31.0366 3.16949 31.0366 2.45727H34.0366ZM33.9327 2.20904L36.0435 0.0771981C35.4121 -0.5479 34.5621 -0.893772 33.682 -0.893772V2.10623V5.10623C32.99 5.10623 32.3204 4.83432 31.822 4.34089L33.9327 2.20904ZM33.682 2.10623V-0.893772H2.48183V2.10623V5.10623H33.682V2.10623ZM2.48183 2.10623V-0.893772C1.60174 -0.893772 0.751736 -0.5479 0.120388 0.0771981L2.23113 2.20904L4.34187 4.34089C3.84351 4.83432 3.17387 5.10623 2.48183 5.10623V2.10623ZM2.23113 2.20904L0.120388 0.0771981C-0.511969 0.703296 -0.872714 1.55884 -0.872714 2.45727H2.12729H5.12729C5.12729 3.16949 4.84125 3.84646 4.34187 4.34089L2.23113 2.20904ZM2.12729 2.45727H-0.872714V24.9237H2.12729H5.12729V2.45727H2.12729ZM2.12729 24.9237H-0.872714C-0.872714 25.8221 -0.511969 26.6777 0.120388 27.3038L2.23113 25.1719L4.34187 23.0401C4.84125 23.5345 5.12729 24.2115 5.12729 24.9237H2.12729ZM2.23113 25.1719L0.120388 27.3038C0.751736 27.9289 1.60174 28.2747 2.48183 28.2747V25.2747V22.2747C3.17387 22.2747 3.84351 22.5466 4.34187 23.0401L2.23113 25.1719ZM2.48183 25.2747V28.2747H24.1092V25.2747V22.2747H2.48183V25.2747ZM34.0366 22.2716L32.7248 19.5736C31.9206 19.9646 31.0351 20.1686 30.1366 20.1686V23.1686V26.1686C31.9423 26.1686 33.7251 25.7589 35.3484 24.9696L34.0366 22.2716ZM30.1366 23.1686V20.1686C29.238 20.1686 28.3525 19.9646 27.5483 19.5736L26.2365 22.2716L24.9247 24.9696C26.548 25.7589 28.3308 26.1686 30.1366 26.1686V23.1686ZM26.2365 22.2716H23.2365V30.1296H26.2365H29.2365V22.2716H26.2365ZM26.2365 30.1296L27.7151 32.7399L31.0833 30.832L29.6047 28.2217L28.1261 25.6114L24.7579 27.5193L26.2365 30.1296ZM29.6047 28.2217L31.0936 30.8262C30.8007 30.9936 30.4707 31.0806 30.1366 31.0806V28.0806V25.0806C29.429 25.0806 28.7322 25.2649 28.1159 25.6172L29.6047 28.2217ZM30.1366 28.0806V31.0806C29.8024 31.0806 29.4724 30.9936 29.1796 30.8262L30.6684 28.2217L32.1572 25.6172C31.5409 25.2649 30.8441 25.0806 30.1366 25.0806V28.0806ZM30.6684 28.2217L29.1898 30.832L32.558 32.7399L34.0366 30.1296L35.5152 27.5193L32.147 25.6114L30.6684 28.2217ZM34.0366 30.1296H37.0366V22.2716H34.0366H31.0366V30.1296H34.0366Z" fill="black" mask="url(#path-1-inside-1_0_119)"/>
</svg>
