<svg width="15" height="25" viewBox="0 0 15 25" fill="none" xmlns="http://www.w3.org/2000/svg">
<path d="M0.573599 24.4497C0.206324 24.0973 0 23.6193 0 23.1209C0 22.6225 0.206324 22.1446 0.573599 21.7921L10.2711 12.4887L0.573599 3.18519C0.216732 2.83071 0.0192653 2.35595 0.0237289 1.86315C0.0281926 1.37036 0.23423 0.898958 0.597463 0.550486C0.960696 0.202013 1.45206 0.00435448 1.96573 7.24792e-05C2.4794 -0.00421143 2.97428 0.185232 3.34377 0.527596L14.4264 11.1599C14.7937 11.5123 15 11.9903 15 12.4887C15 12.987 14.7937 13.465 14.4264 13.8175L3.34377 24.4497C2.97638 24.8021 2.47817 25 1.95868 25C1.4392 25 0.940984 24.8021 0.573599 24.4497Z" fill="#A81717"/>
</svg>
