<svg width="40" height="39" viewBox="0 0 40 39" fill="none" xmlns="http://www.w3.org/2000/svg">
<path d="M1.26582 23.1392V37.7215M15.0042 30.4304H21.2489C22.5739 30.4304 23.8446 30.9425 24.7815 31.8541C25.7184 32.7656 26.2447 34.002 26.2447 35.2911H1.26582V25.5696H10.0084C11.3334 25.5696 12.6041 26.0817 13.541 26.9933C14.4779 27.9049 15.0042 29.1412 15.0042 30.4304ZM15.0042 30.4304H10.0084M12.09 20.7089V9.36709C12.09 8.50766 12.4409 7.68342 13.0655 7.07571C13.6901 6.468 14.5372 6.12659 15.4205 6.12659H35.4037C36.287 6.12659 37.1341 6.468 37.7587 7.07571C38.3833 7.68342 38.7342 8.50766 38.7342 9.36709V20.7089C38.7342 21.5683 38.3833 22.3925 37.7587 23.0002C37.1341 23.608 36.287 23.9494 35.4037 23.9494H18.3347M12.09 12.6076H38.7342M25.4121 12.6076V15.8481M30.4079 6.12659H20.4163L21.0175 2.62036C21.0823 2.2412 21.2835 1.8968 21.5852 1.64867C21.8869 1.40055 22.2694 1.26485 22.6644 1.26583H28.1598C28.554 1.266 28.9353 1.40222 29.2359 1.65025C29.5366 1.89828 29.7371 2.24203 29.8017 2.62036L30.4079 6.12659Z" stroke="#3F3F3F" stroke-width="2.5" stroke-linecap="round" stroke-linejoin="round"/>
</svg>
