<svg width="111" height="80" viewBox="0 0 111 80" fill="none" xmlns="http://www.w3.org/2000/svg">
<path d="M71.8817 40.1439C71.8817 36.4941 68.6904 33.5325 64.7499 33.5325C60.8186 33.5325 57.6227 36.4941 57.6227 40.1439C57.6227 43.7979 60.814 46.7553 64.7545 46.7553C68.6858 46.7553 71.8817 43.7937 71.8817 40.1439ZM64.7499 43.6352C62.7288 43.6352 61.0869 42.071 61.0869 40.1439C61.0869 38.2251 62.7288 36.6568 64.7545 36.6568C66.7756 36.6568 68.4175 38.221 68.4175 40.1439C68.4175 42.071 66.7756 43.6352 64.7545 43.6352M20.4284 34.4251L16.141 46.4091C16.0998 46.5078 16.0275 46.5936 15.933 46.6558C15.8385 46.718 15.726 46.7541 15.6091 46.7595H15.216C15.0946 46.7536 14.9766 46.7209 14.8725 46.6641C14.7685 46.6074 14.6815 46.5284 14.6194 46.4341L10.2256 38.8216L5.83186 46.4341C5.77014 46.5278 5.68391 46.6065 5.58071 46.6632C5.47752 46.7199 5.36049 46.753 5.23985 46.7595H4.84673C4.72989 46.7541 4.61733 46.718 4.52286 46.6558C4.42839 46.5936 4.3561 46.5078 4.31485 46.4091L0.0274659 34.4251C-0.0742843 34.1332 0.115341 33.8996 0.452967 33.8996H3.07535C3.29735 33.8996 3.53785 34.0581 3.60722 34.25L5.77636 40.3066L9.49949 33.8579C9.56164 33.7636 9.64859 33.6846 9.75266 33.6278C9.85672 33.5711 9.97468 33.5383 10.0961 33.5325H10.3597C10.4812 33.5383 10.5991 33.5711 10.7032 33.6278C10.8073 33.6846 10.8942 33.7636 10.9564 33.8579L14.6795 40.3066L16.844 34.25C16.8856 34.1506 16.9586 34.0644 17.0539 34.0021C17.1493 33.9398 17.2629 33.9042 17.3805 33.8996H20.0029C20.3405 33.8996 20.5348 34.1373 20.4284 34.4251ZM26.7508 45.8376C26.7527 45.9106 26.7382 45.9832 26.7082 46.051C26.6783 46.1188 26.6334 46.1804 26.5764 46.2322C26.5194 46.284 26.4514 46.3249 26.3765 46.3524C26.3015 46.3799 26.2212 46.3936 26.1403 46.3924H23.4948C23.4139 46.3936 23.3335 46.3799 23.2586 46.3524C23.1836 46.3249 23.1156 46.284 23.0586 46.2322C23.0016 46.1804 22.9568 46.1188 22.9268 46.051C22.8969 45.9832 22.8824 45.9106 22.8843 45.8376V34.4502C22.8843 34.1457 23.1572 33.8996 23.4948 33.8996H26.1403C26.2208 33.8984 26.3007 33.9119 26.3754 33.9392C26.45 33.9665 26.5178 34.007 26.5748 34.0583C26.6317 34.1097 26.6766 34.1708 26.7069 34.2381C26.7371 34.3055 26.752 34.3776 26.7508 34.4502V45.8376ZM30.1779 34.4502V52.449C30.1779 52.7577 30.4554 53.0038 30.7884 53.0038H33.4386C33.5195 53.0049 33.5998 52.9913 33.6747 52.9638C33.7497 52.9363 33.8177 52.8954 33.8747 52.8436C33.9317 52.7918 33.9765 52.7301 34.0065 52.6623C34.0365 52.5946 34.0509 52.522 34.0491 52.449V46.2047C35.1683 46.5593 36.4078 46.7553 37.7121 46.7553C41.4259 46.7553 44.4368 43.7937 44.4368 40.1439C44.4368 36.4941 41.4259 33.5325 37.7121 33.5325C35.8898 33.5325 34.2433 34.2458 33.0316 35.4054L32.5598 34.2458C32.5119 34.1482 32.4352 34.0644 32.3382 34.0034C32.2412 33.9423 32.1275 33.9064 32.0094 33.8996H30.7884C30.7079 33.8984 30.628 33.9119 30.5533 33.9392C30.4787 33.9665 30.4109 34.007 30.3539 34.0583C30.297 34.1097 30.2521 34.1708 30.2218 34.2381C30.1916 34.3055 30.1767 34.3776 30.1779 34.4502ZM34.0491 38.2043C34.3508 37.7394 34.7806 37.3527 35.2968 37.0815C35.8129 36.8104 36.3979 36.6641 36.9952 36.6568C38.9562 36.6568 40.5426 38.2168 40.5426 40.1439C40.5426 42.071 38.9516 43.6352 36.9952 43.6352C35.8852 43.6352 34.8677 43.3724 34.0491 42.9261V38.2043ZM50.5835 46.3924H47.938C47.8574 46.3935 47.7775 46.3801 47.7029 46.3528C47.6282 46.3255 47.5604 46.285 47.5035 46.2337C47.4466 46.1823 47.4016 46.1211 47.3714 46.0538C47.3412 45.9865 47.3262 45.9144 47.3275 45.8418V34.4502C47.3275 34.1457 47.6003 33.8996 47.938 33.8996H49.159C49.381 33.8996 49.6307 34.0539 49.7047 34.2458L50.1765 35.4012C50.1765 35.4012 51.6565 33.5325 54.2002 33.5325C56.744 33.5325 57.0539 34.325 56.8411 34.763L55.93 36.6192C55.8144 36.8611 55.5137 37.0363 55.1114 36.8945C54.4299 36.6511 53.6791 36.6142 52.9724 36.7896C52.2657 36.9649 51.6415 37.3429 51.194 37.8664V45.8376C51.1952 45.9102 51.1803 45.9824 51.15 46.0497C51.1198 46.117 51.0749 46.1781 51.0179 46.2295C50.961 46.2808 50.8932 46.3213 50.8186 46.3486C50.7439 46.3759 50.664 46.3894 50.5835 46.3882M72.2748 3.24522C72.4991 2.49376 73.045 1.85333 73.7925 1.46462C74.54 1.07591 75.4281 0.970703 76.2615 1.17211C76.6797 1.26756 77.0726 1.43698 77.4175 1.67053C77.7625 1.90409 78.0525 2.19712 78.2708 2.53262C78.4891 2.86811 78.6313 3.23938 78.6892 3.62486C78.7471 4.01035 78.7195 4.40236 78.6079 4.77813C78.4964 5.1539 78.3032 5.50595 78.0396 5.81382C77.776 6.12169 77.4471 6.37926 77.0722 6.57155C76.6973 6.76385 76.2837 6.88704 75.8555 6.93398C75.4274 6.98092 74.9931 6.95067 74.578 6.84499C73.7436 6.64265 73.0324 6.14988 72.6005 5.47493C72.1687 4.79997 72.0515 3.99802 72.2748 3.24522ZM80.8125 14.8829C81.3731 15.1761 81.7821 15.6574 81.9502 16.2218C82.1184 16.7861 82.0319 17.3875 81.7098 17.8946C81.384 18.3994 80.85 18.7674 80.2243 18.9183C79.5986 19.0691 78.9322 18.9905 78.3705 18.6996C77.81 18.4065 77.401 17.9251 77.2328 17.3608C77.0647 16.7964 77.1512 16.195 77.4733 15.688C77.7991 15.1832 78.3331 14.8151 78.9588 14.6643C79.5845 14.5135 80.2509 14.5921 80.8125 14.8829ZM83.8836 60.633C83.387 60.1848 83.1082 59.5772 83.1082 58.9436C83.1082 58.3101 83.387 57.7025 83.8836 57.2543C84.1287 57.0311 84.4204 56.8539 84.7419 56.7329C85.0634 56.612 85.4083 56.5497 85.7567 56.5497C86.105 56.5497 86.4499 56.612 86.7714 56.7329C87.0929 56.8539 87.3847 57.0311 87.6298 57.2543C88.1263 57.7025 88.4052 58.3101 88.4052 58.9436C88.4052 59.5772 88.1263 60.1848 87.6298 60.633C87.1329 61.0808 86.4592 61.3323 85.7567 61.3323C85.0542 61.3323 84.3805 61.0808 83.8836 60.633ZM72.5199 29.866C72.3715 30.0983 72.1268 30.2679 71.8397 30.3376C71.5526 30.4072 71.2466 30.3711 70.989 30.2372C70.7314 30.1034 70.5434 29.8827 70.4662 29.6238C70.389 29.3649 70.429 29.0889 70.5774 28.8566C70.7258 28.6242 70.9705 28.4546 71.2576 28.385C71.5447 28.3154 71.8507 28.3515 72.1083 28.4853C72.3659 28.6192 72.5539 28.8398 72.6311 29.0988C72.7083 29.3577 72.6683 29.6337 72.5199 29.866ZM70.5774 51.1393C70.429 50.9069 70.389 50.631 70.4662 50.372C70.5434 50.1131 70.7314 49.8924 70.989 49.7586C71.2466 49.6247 71.5526 49.5886 71.8397 49.6583C72.1268 49.7279 72.3715 49.8975 72.5199 50.1298C72.6679 50.3618 72.7082 50.6372 72.632 50.8958C72.5557 51.1545 72.3691 51.3755 72.1129 51.5105C71.8551 51.6437 71.5494 51.6793 71.2625 51.6098C70.9757 51.5402 70.7264 51.371 70.5774 51.1393ZM87.8333 40.0021C87.8324 40.4286 87.6913 40.8453 87.4278 41.1995C87.1643 41.5537 86.7902 41.8294 86.353 41.9919C85.9157 42.1543 85.4348 42.1962 84.9712 42.1122C84.5075 42.0282 84.0819 41.822 83.7481 41.5198C83.4144 41.2177 83.1875 40.833 83.0961 40.4145C83.0047 39.9961 83.053 39.5625 83.2348 39.1688C83.4167 38.7751 83.7239 38.4388 84.1176 38.2025C84.5113 37.9662 84.9739 37.8406 85.4468 37.8414C86.081 37.8414 86.6892 38.0686 87.1376 38.473C87.586 38.8774 87.8379 39.426 87.8379 39.9979M82.4128 6.1609C82.6332 5.79328 82.9331 5.46926 83.2948 5.20803C83.6565 4.9468 84.0726 4.75367 84.5185 4.64007C84.9644 4.52647 85.4311 4.49471 85.8909 4.54667C86.3506 4.59864 86.7942 4.73326 87.1952 4.94259C87.5963 5.15191 87.9467 5.43167 88.2258 5.76531C88.5048 6.09896 88.7068 6.4797 88.8197 6.885C88.9327 7.2903 88.9544 7.71192 88.8835 8.1249C88.8125 8.53789 88.6505 8.93384 88.4068 9.28933C87.9329 9.98081 87.1788 10.4785 86.3047 10.6767C85.4305 10.8748 84.5052 10.7579 83.725 10.3508C82.9449 9.94361 82.3715 9.27824 82.1264 8.49593C81.8814 7.71363 81.9842 6.87601 82.4128 6.1609ZM57.299 50.2717C57.3432 50.1948 57.4042 50.1267 57.4783 50.0717C57.5525 50.0166 57.6382 49.9756 57.7303 49.9512C57.8225 49.9267 57.9191 49.9193 58.0145 49.9295C58.1099 49.9396 58.202 49.967 58.2854 50.0101C58.3687 50.0532 58.4415 50.111 58.4994 50.1801C58.5573 50.2492 58.5992 50.3281 58.6224 50.4122C58.6456 50.4962 58.6497 50.5836 58.6345 50.6692C58.6193 50.7547 58.5851 50.8366 58.5339 50.9098C58.4394 51.0575 58.2838 51.1653 58.1012 51.2095C57.9186 51.2537 57.7241 51.2307 57.5603 51.1455C57.3965 51.0603 57.277 50.92 57.228 50.7553C57.179 50.5906 57.2045 50.4152 57.299 50.2675M70.2675 13.594C70.3392 13.3338 70.4676 13.089 70.6453 12.874C70.823 12.659 71.0464 12.4781 71.3025 12.3418C71.5586 12.2056 71.8422 12.1167 72.1368 12.0803C72.4314 12.044 72.731 12.061 73.0183 12.1302C73.3055 12.1995 73.5746 12.3197 73.8097 12.4838C74.0449 12.6478 74.2415 12.8525 74.388 13.0859C74.5345 13.3192 74.628 13.5766 74.663 13.8429C74.698 14.1091 74.6738 14.3791 74.5919 14.6368C74.5162 14.8933 74.3852 15.1338 74.2063 15.3446C74.0275 15.5553 73.8043 15.7322 73.5495 15.8651C73.2948 15.998 73.0135 16.0843 72.7218 16.119C72.43 16.1538 72.1335 16.1363 71.8493 16.0676C71.5653 15.9989 71.2991 15.8804 71.066 15.7189C70.8328 15.5573 70.6372 15.356 70.4903 15.1263C70.3434 14.8966 70.2481 14.6431 70.2099 14.3802C70.1717 14.1172 70.1913 13.8501 70.2675 13.594ZM64.7175 22.6873C64.3391 22.6873 63.9762 22.5517 63.7086 22.3104C63.441 22.0691 63.2907 21.7418 63.2907 21.4005C63.2907 21.0592 63.441 20.7319 63.7086 20.4906C63.9762 20.2492 64.3391 20.1137 64.7175 20.1137C65.0959 20.1137 65.4588 20.2492 65.7264 20.4906C65.994 20.7319 66.1443 21.0592 66.1443 21.4005C66.1443 21.7418 65.994 22.0691 65.7264 22.3104C65.4588 22.5517 65.0959 22.6873 64.7175 22.6873ZM64.7175 26.9128C64.9604 26.9128 65.1933 26.9998 65.365 27.1547C65.5368 27.3096 65.6333 27.5196 65.6333 27.7387C65.6333 27.9577 65.5368 28.1678 65.365 28.3227C65.1933 28.4776 64.9604 28.5646 64.7175 28.5646C64.4746 28.5646 64.2417 28.4776 64.07 28.3227C63.8982 28.1678 63.8018 27.9577 63.8018 27.7387C63.8018 27.5196 63.8982 27.3096 64.07 27.1547C64.2417 26.9998 64.4746 26.9128 64.7175 26.9128ZM64.7175 15.0665C64.1766 15.0665 63.6578 14.8727 63.2753 14.5277C62.8928 14.1827 62.6779 13.7148 62.6779 13.227C62.6779 12.7391 62.8928 12.2712 63.2753 11.9262C63.6578 11.5813 64.1766 11.3875 64.7175 11.3875C65.2578 11.3875 65.776 11.581 66.1581 11.9256C66.5402 12.2702 66.7548 12.7376 66.7548 13.2249C66.7548 13.7122 66.5402 14.1796 66.1581 14.5241C65.776 14.8687 65.2578 15.0665 64.7175 15.0665ZM57.2851 29.7242C57.2142 29.6143 57.1811 29.4878 57.1899 29.3609C57.1988 29.234 57.2492 29.1123 57.3347 29.0113C57.4203 28.9102 57.5372 28.8343 57.6707 28.7933C57.8041 28.7522 57.9481 28.7477 58.0843 28.7805C58.2205 28.8133 58.3429 28.8818 58.436 28.9773C58.529 29.0729 58.5885 29.1912 58.6069 29.3172C58.6253 29.4433 58.6019 29.5715 58.5395 29.6855C58.4771 29.7995 58.3785 29.8943 58.2564 29.9578C58.0931 30.0426 57.8993 30.0656 57.7173 30.0219C57.5352 29.9781 57.3798 29.871 57.2851 29.7242ZM64.7175 53.0914C64.4746 53.0914 64.2417 53.0044 64.07 52.8495C63.8982 52.6946 63.8018 52.4845 63.8018 52.2655C63.8018 52.0465 63.8982 51.8364 64.07 51.6815C64.2417 51.5266 64.4746 51.4396 64.7175 51.4396C64.9604 51.4396 65.1933 51.5266 65.365 51.6815C65.5368 51.8364 65.6333 52.0465 65.6333 52.2655C65.6333 52.4845 65.5368 52.6946 65.365 52.8495C65.1933 53.0044 64.9604 53.0914 64.7175 53.0914ZM64.7175 57.3169C65.0953 57.3169 65.4576 57.4522 65.7248 57.6931C65.9919 57.9341 66.142 58.2609 66.142 58.6016C66.142 58.9423 65.9919 59.2691 65.7248 59.51C65.4576 59.751 65.0953 59.8863 64.7175 59.8863C64.3397 59.8863 63.9774 59.751 63.7102 59.51C63.4431 59.2691 63.293 58.9423 63.293 58.6016C63.293 58.2609 63.4431 57.9341 63.7102 57.6931C63.9774 57.4522 64.3397 57.3169 64.7175 57.3169ZM80.8773 48.3946C81.0113 48.1857 81.1897 48.0027 81.4023 47.8561C81.6148 47.7094 81.8573 47.6021 82.1159 47.5401C82.3746 47.4781 82.6442 47.4627 82.9094 47.4948C83.1746 47.5269 83.4302 47.6059 83.6616 47.7272C84.1268 47.9713 84.4659 48.3717 84.6046 48.8408C84.7433 49.3098 84.6703 49.8093 84.4016 50.2299C84.1276 50.6441 83.684 50.9444 83.1665 51.0659C82.649 51.1873 82.0993 51.1203 81.6363 50.8791C81.1732 50.638 80.834 50.2421 80.692 49.7772C80.5499 49.3123 80.6165 48.8156 80.8773 48.3946ZM64.7175 64.9377C64.9847 64.9377 65.2494 64.9852 65.4963 65.0774C65.7432 65.1696 65.9675 65.3048 66.1565 65.4753C66.3454 65.6457 66.4953 65.848 66.5976 66.0707C66.6999 66.2934 66.7525 66.532 66.7525 66.773C66.7525 67.0141 66.6999 67.2527 66.5976 67.4754C66.4953 67.6981 66.3454 67.9004 66.1565 68.0708C65.9675 68.2412 65.7432 68.3764 65.4963 68.4687C65.2494 68.5609 64.9847 68.6084 64.7175 68.6084C64.1778 68.6084 63.6602 68.415 63.2785 68.0708C62.8969 67.7266 62.6825 67.2598 62.6825 66.773C62.6825 66.2863 62.8969 65.8194 63.2785 65.4753C63.6602 65.1311 64.1778 64.9377 64.7175 64.9377ZM109.011 29.3029C109.164 29.8151 109.203 30.3493 109.126 30.8751C109.05 31.4009 108.859 31.9079 108.566 32.3673C108.272 32.8267 107.881 33.2294 107.414 33.5524C106.948 33.8754 106.416 34.1125 105.848 34.25C104.701 34.5276 103.479 34.383 102.45 33.848C101.421 33.3129 100.67 32.4312 100.362 31.3968C100.055 30.3625 100.215 29.2602 100.808 28.3324C101.401 27.4046 102.379 26.7274 103.526 26.4498C104.673 26.1721 105.895 26.3167 106.924 26.8517C107.952 27.3868 108.703 28.2685 109.011 29.3029ZM78.0514 54.3386C77.7137 54.0278 77.5256 53.6093 77.528 53.1741C77.5305 52.7389 77.7232 52.3222 78.0644 52.0145C78.4056 51.7067 78.8677 51.5329 79.3503 51.5307C79.8328 51.5285 80.2968 51.6981 80.6414 52.0027C80.9849 52.3125 81.1778 52.7326 81.1778 53.1707C81.1778 53.6087 80.9849 54.0288 80.6414 54.3386C80.298 54.6483 79.8321 54.8223 79.3464 54.8223C78.8607 54.8223 78.3949 54.6483 78.0514 54.3386ZM82.5562 35.6932C82.4036 35.1766 82.4844 34.6265 82.7809 34.1636C83.0775 33.7006 83.5655 33.3627 84.1379 33.2238C84.4238 33.15 84.723 33.1282 85.0183 33.1597C85.3136 33.1913 85.5989 33.2756 85.8576 33.4078C86.1163 33.5399 86.3433 33.7172 86.5252 33.9293C86.7072 34.1414 86.8404 34.384 86.9172 34.6431C86.994 34.9021 87.0128 35.1724 86.9726 35.4381C86.9323 35.7038 86.8337 35.9596 86.6826 36.1905C86.5315 36.4215 86.3309 36.623 86.0925 36.7832C85.8542 36.9435 85.5827 37.0593 85.2942 37.1239C84.7214 37.2616 84.1114 37.1887 83.5981 36.9212C83.0848 36.6538 82.7101 36.2095 82.5562 35.6932ZM89.0636 24.3725C89.7169 24.0559 90.4811 23.9811 91.1945 24.164C91.9079 24.3468 92.5143 24.773 92.8853 25.3521C93.2562 25.9313 93.3627 26.6179 93.182 27.2666C93.0013 27.9153 92.5476 28.4751 91.9172 28.8274C91.2639 29.144 90.4996 29.2188 89.7863 29.0359C89.0729 28.853 88.4665 28.4269 88.0955 27.8477C87.7245 27.2686 87.6181 26.5819 87.7988 25.9332C87.9795 25.2845 88.4331 24.7247 89.0636 24.3725ZM87.6298 22.7415C87.3847 22.9648 87.0929 23.142 86.7714 23.2629C86.4499 23.3838 86.105 23.4461 85.7567 23.4461C85.4083 23.4461 85.0634 23.3838 84.7419 23.2629C84.4204 23.142 84.1287 22.9648 83.8836 22.7415C83.387 22.2934 83.1082 21.6857 83.1082 21.0522C83.1082 20.4186 83.387 19.811 83.8836 19.3628C84.1287 19.1396 84.4204 18.9624 84.7419 18.8415C85.0634 18.7206 85.4083 18.6583 85.7567 18.6583C86.105 18.6583 86.4499 18.7206 86.7714 18.8415C87.0929 18.9624 87.3847 19.1396 87.6298 19.3628C88.1263 19.811 88.4052 20.4186 88.4052 21.0522C88.4052 21.6857 88.1263 22.2934 87.6298 22.7415ZM82.5562 44.2943C82.7178 43.7856 83.0945 43.3544 83.6051 43.0937C84.1157 42.833 84.7194 42.7635 85.2863 42.9002C85.8531 43.0369 86.3378 43.3688 86.636 43.8246C86.9342 44.2804 87.022 44.8235 86.8806 45.3371C86.8089 45.5973 86.6805 45.8421 86.5028 46.0571C86.3251 46.2721 86.1017 46.453 85.8456 46.5893C85.5895 46.7256 85.3059 46.8145 85.0113 46.8508C84.7167 46.8871 84.4171 46.8701 84.1298 46.8009C83.8426 46.7316 83.5735 46.6114 83.3383 46.4474C83.1032 46.2833 82.9066 46.0786 82.7601 45.8452C82.6136 45.6119 82.5201 45.3546 82.4851 45.0883C82.4501 44.822 82.4743 44.5521 82.5562 44.2943ZM68.5886 21.6654C68.6402 21.4906 68.7294 21.3267 68.8513 21.183C68.9731 21.0394 69.1251 20.9188 69.2986 20.8281C69.4722 20.7375 69.6638 20.6786 69.8626 20.6547C70.0614 20.6309 70.2634 20.6427 70.4572 20.6893C70.8484 20.7833 71.1823 21.0137 71.3853 21.3297C71.5882 21.6458 71.6437 22.0216 71.5394 22.3745C71.4351 22.7274 71.1797 23.0285 70.8293 23.2115C70.4789 23.3946 70.0622 23.4446 69.6709 23.3505C69.4771 23.304 69.2954 23.2236 69.1361 23.1137C68.9768 23.0038 68.8431 22.8667 68.7426 22.7102C68.6421 22.5537 68.5767 22.3809 68.5503 22.2016C68.5239 22.0223 68.5369 21.8401 68.5886 21.6654ZM98.5125 18.1824C98.9752 17.9406 99.4863 17.7834 100.016 17.7199C100.547 17.6563 101.085 17.6876 101.602 17.8119C102.119 17.9363 102.603 18.1513 103.028 18.4446C103.452 18.7379 103.809 19.1038 104.076 19.5214C104.344 19.939 104.518 20.4001 104.588 20.8784C104.658 21.3566 104.622 21.8426 104.484 22.3085C104.346 22.7745 104.107 23.2113 103.782 23.5941C103.456 23.9768 103.05 24.298 102.587 24.5393C102.124 24.7806 101.613 24.9373 101.082 25.0004C100.552 25.0635 100.013 25.0318 99.4967 24.907C98.9801 24.7823 98.4957 24.567 98.0713 24.2735C97.6469 23.9799 97.2908 23.6139 97.0232 23.1962C96.4836 22.3532 96.3374 21.3514 96.6166 20.4112C96.8959 19.4709 97.5779 18.6692 98.5125 18.1824ZM84.4062 29.7659C84.5443 29.9748 84.6351 30.2063 84.6731 30.4471C84.7112 30.6879 84.6958 30.9331 84.6279 31.1684C84.56 31.4038 84.4408 31.6247 84.2774 31.8181C84.114 32.0116 83.9096 32.1739 83.6761 32.2955C83.4426 32.4171 83.1846 32.4957 82.9171 32.5266C82.6496 32.5575 82.378 32.5401 82.118 32.4755C81.858 32.4109 81.6148 32.3004 81.4026 32.1503C81.1905 32.0002 81.0135 31.8136 80.8819 31.6012C80.7483 31.3923 80.6616 31.1616 80.6269 30.9224C80.5921 30.6832 80.6099 30.4402 80.6792 30.2072C80.7486 29.9742 80.8682 29.7559 81.0311 29.5645C81.194 29.3732 81.3972 29.2127 81.6289 29.0922C81.8606 28.9717 82.1163 28.8936 82.3815 28.8622C82.6468 28.8308 82.9162 28.8469 83.1745 28.9094C83.4329 28.972 83.675 29.0798 83.8871 29.2268C84.0992 29.3737 84.2726 29.5569 84.4062 29.7659ZM90.5343 33.7703C90.3251 33.0656 90.4346 32.3148 90.8387 31.6829C91.2428 31.051 91.9085 30.5895 92.6896 30.3999C93.4716 30.2107 94.3048 30.3095 95.0061 30.6744C95.7073 31.0393 96.2192 31.6405 96.4289 32.3458C96.6387 33.051 96.5292 33.8026 96.1246 34.435C95.7199 35.0675 95.0533 35.5291 94.2713 35.7182C93.4894 35.9067 92.6564 35.8074 91.9556 35.4421C91.2548 35.0768 90.7436 34.4755 90.5343 33.7703ZM90.5343 46.2256C90.6324 45.871 90.8078 45.5376 91.0502 45.2448C91.2926 44.952 91.5973 44.7056 91.9464 44.5201C92.2955 44.3346 92.682 44.2136 93.0835 44.1642C93.4849 44.1148 93.8933 44.138 94.2847 44.2324C94.6762 44.3269 95.0428 44.4906 95.3634 44.7141C95.6839 44.9377 95.9519 45.2166 96.1517 45.5345C96.3514 45.8524 96.4791 46.203 96.5271 46.5659C96.5751 46.9287 96.5425 47.2966 96.4312 47.6479C96.3331 48.0025 96.1578 48.3359 95.9153 48.6287C95.6729 48.9215 95.3683 49.1679 95.0192 49.3534C94.6701 49.5389 94.2835 49.6599 93.8821 49.7093C93.4806 49.7587 93.0722 49.7355 92.6808 49.6411C92.2894 49.5466 91.9227 49.3829 91.6022 49.1594C91.2817 48.9358 91.0137 48.6569 90.8139 48.339C90.6141 48.0211 90.4865 47.6705 90.4385 47.3076C90.3905 46.9448 90.4231 46.5769 90.5343 46.2256ZM94.5072 43.1555C93.5787 43.1555 92.6881 42.8229 92.0315 42.2307C91.3749 41.6385 91.0061 40.8354 91.0061 39.9979C91.0061 39.1605 91.3749 38.3573 92.0315 37.7651C92.6881 37.173 93.5787 36.8403 94.5072 36.8403C95.4358 36.8403 96.3263 37.173 96.9829 37.7651C97.6395 38.3573 98.0083 39.1605 98.0083 39.9979C98.0083 40.8354 97.6395 41.6385 96.9829 42.2307C96.3263 42.8229 95.4358 43.1555 94.5072 43.1555ZM91.3807 15.9841C91.0388 15.6779 90.7674 15.3136 90.5823 14.9124C90.3971 14.5111 90.3018 14.0808 90.3018 13.6462C90.3018 13.2116 90.3971 12.7812 90.5823 12.38C90.7674 11.9787 91.0388 11.6145 91.3807 11.3082C91.7203 10.9998 92.1242 10.7551 92.5691 10.5881C93.014 10.4211 93.4911 10.3351 93.973 10.3351C94.4549 10.3351 94.9321 10.4211 95.377 10.5881C95.8219 10.7551 96.2257 10.9998 96.5653 11.3082C97.1953 11.9377 97.533 12.7614 97.509 13.609C97.4849 14.4567 97.1008 15.2637 96.4359 15.8633C95.7711 16.4629 94.8764 16.8093 93.9365 16.831C92.9966 16.8527 92.0833 16.5481 91.3853 15.98M76.4697 24.6061C76.2532 24.9435 75.8969 25.1895 75.4793 25.29C75.0616 25.3906 74.6168 25.3373 74.2427 25.1421C73.8686 24.9468 73.5958 24.6255 73.4844 24.2489C73.3729 23.8722 73.4319 23.471 73.6484 23.1336C73.8643 22.7962 74.22 22.55 74.6372 22.4491C74.8437 22.3991 75.0592 22.3863 75.2713 22.4114C75.4833 22.4366 75.6878 22.4991 75.873 22.5955C76.0583 22.692 76.2207 22.8203 76.3509 22.9733C76.4811 23.1263 76.5767 23.301 76.6321 23.4873C76.6875 23.6736 76.7017 23.8679 76.6738 24.0592C76.6459 24.2504 76.5766 24.4348 76.4697 24.6019M73.5143 47.9024C73.6277 47.7997 73.7625 47.7183 73.9109 47.6627C74.0593 47.6071 74.2185 47.5785 74.3792 47.5785C74.5399 47.5785 74.699 47.6071 74.8474 47.6627C74.9958 47.7183 75.1306 47.7997 75.244 47.9024C75.4714 48.1094 75.5989 48.389 75.5989 48.6803C75.5989 48.9717 75.4714 49.2513 75.244 49.4583C75.1306 49.5609 74.9958 49.6424 74.8474 49.698C74.699 49.7535 74.5399 49.7821 74.3792 49.7821C74.2185 49.7821 74.0593 49.7535 73.9109 49.698C73.7625 49.6424 73.6277 49.5609 73.5143 49.4583C73.2858 49.2518 73.1575 48.972 73.1575 48.6803C73.1575 48.3886 73.2858 48.1088 73.5143 47.9024ZM73.5143 30.5209C73.6277 30.4182 73.7625 30.3368 73.9109 30.2812C74.0593 30.2256 74.2185 30.197 74.3792 30.197C74.5399 30.197 74.699 30.2256 74.8474 30.2812C74.9958 30.3368 75.1306 30.4182 75.244 30.5209C75.4144 30.675 75.5302 30.8713 75.577 31.0848C75.6238 31.2983 75.5994 31.5195 75.5068 31.7205C75.4143 31.9215 75.2578 32.0932 75.0571 32.2141C74.8564 32.3349 74.6205 32.3994 74.3792 32.3994C74.1379 32.3994 73.9019 32.3349 73.7012 32.2141C73.5005 32.0932 73.344 31.9215 73.2515 31.7205C73.159 31.5195 73.1345 31.2983 73.1813 31.0848C73.2281 30.8713 73.3439 30.675 73.5143 30.5209ZM75.8962 47.1724C75.5926 47.0137 75.3712 46.753 75.2802 46.4473C75.1892 46.1417 75.236 45.816 75.4105 45.5415C75.4973 45.4055 75.6129 45.2863 75.7507 45.1907C75.8886 45.0951 76.046 45.0249 76.214 44.9842C76.382 44.9436 76.5572 44.9332 76.7296 44.9536C76.9021 44.9741 77.0683 45.025 77.2189 45.1035C77.5231 45.2617 77.7452 45.5224 77.8363 45.8283C77.9273 46.1341 77.88 46.4601 77.7045 46.7344C77.5291 47.0088 77.2401 47.2091 76.9009 47.2912C76.5618 47.3734 76.2004 47.3306 75.8962 47.1724ZM73.6484 56.8497C73.5409 56.6831 73.4711 56.4989 73.4429 56.3079C73.4147 56.1168 73.4288 55.9226 73.4842 55.7365C73.5397 55.5503 73.6355 55.3759 73.7661 55.2234C73.8966 55.0708 74.0594 54.943 74.245 54.8475C74.4297 54.7497 74.634 54.686 74.8461 54.6599C75.0583 54.6338 75.274 54.646 75.4809 54.6956C75.6878 54.7453 75.8818 54.8315 76.0515 54.9492C76.2212 55.0669 76.3633 55.2138 76.4697 55.3814C76.5779 55.5482 76.6483 55.7327 76.6769 55.9242C76.7055 56.1157 76.6916 56.3104 76.6361 56.497C76.5806 56.6836 76.4846 56.8585 76.3536 57.0114C76.2226 57.1643 76.0593 57.2922 75.873 57.3878C75.6881 57.4854 75.4836 57.5489 75.2712 57.5747C75.0589 57.6004 74.843 57.5879 74.6361 57.5379C74.4292 57.4878 74.2353 57.4012 74.0658 57.2831C73.8962 57.1649 73.7543 57.0176 73.6484 56.8497ZM77.7045 33.2447C77.7916 33.3805 77.848 33.5305 77.8707 33.686C77.8934 33.8415 77.8819 33.9995 77.8368 34.151C77.7917 34.3025 77.7139 34.4445 77.6079 34.5688C77.5018 34.6932 77.3697 34.7974 77.2189 34.8756C76.9145 35.033 76.5534 35.0753 76.2145 34.9932C75.8756 34.9112 75.5866 34.7114 75.4105 34.4377C75.2351 34.1633 75.1878 33.8373 75.2788 33.5315C75.3699 33.2256 75.592 32.9649 75.8962 32.8067C76.2004 32.6485 76.5618 32.6058 76.9009 32.6879C77.2401 32.7701 77.5291 32.9703 77.7045 33.2447ZM76.5529 37.1406C76.4548 36.8109 76.5059 36.4596 76.695 36.1639C76.884 35.8682 77.1956 35.6524 77.5612 35.5639C77.9267 35.4754 78.3162 35.5215 78.6441 35.692C78.972 35.8625 79.2113 36.1436 79.3094 36.4732C79.358 36.6365 79.3705 36.8067 79.3461 36.9743C79.3217 37.1419 79.261 37.3035 79.1674 37.4499C79.0737 37.5963 78.9491 37.7247 78.8004 37.8276C78.6518 37.9306 78.4822 38.0061 78.3012 38.0499C78.1202 38.0938 77.9314 38.105 77.7456 38.083C77.5598 38.061 77.3806 38.0063 77.2182 37.9218C77.0559 37.8374 76.9136 37.7249 76.7994 37.5909C76.6853 37.4569 76.6015 37.3039 76.5529 37.1406ZM76.5529 42.8385C76.6015 42.6753 76.6853 42.5223 76.7994 42.3882C76.9136 42.2542 77.0559 42.1417 77.2182 42.0573C77.3806 41.9729 77.5598 41.9181 77.7456 41.8961C77.9314 41.8741 78.1202 41.8854 78.3012 41.9292C78.4822 41.973 78.6518 42.0486 78.8004 42.1515C78.9491 42.2545 79.0737 42.3828 79.1674 42.5292C79.261 42.6756 79.3217 42.8372 79.3461 43.0048C79.3705 43.1724 79.358 43.3427 79.3094 43.5059C79.2113 43.8356 78.972 44.1166 78.6441 44.2871C78.3162 44.4577 77.9267 44.5037 77.5612 44.4152C77.1956 44.3267 76.884 44.1109 76.695 43.8152C76.5059 43.5195 76.4548 43.1682 76.5529 42.8385ZM78.4075 41.3953C78.196 41.4057 77.9844 41.3771 77.7855 41.3112C77.5867 41.2454 77.4048 41.1437 77.251 41.0123C77.0972 40.881 76.9747 40.7227 76.8909 40.5472C76.8072 40.3717 76.764 40.1827 76.764 39.9917C76.764 39.8006 76.8072 39.6116 76.8909 39.4361C76.9747 39.2606 77.0972 39.1023 77.251 38.971C77.4048 38.8396 77.5867 38.7379 77.7855 38.6721C77.9844 38.6062 78.196 38.5776 78.4075 38.588C78.8056 38.6076 79.1803 38.764 79.4544 39.0251C79.7285 39.2862 79.8813 39.6321 79.8813 39.9917C79.8813 40.3512 79.7285 40.6971 79.4544 40.9582C79.1803 41.2193 78.8056 41.3757 78.4075 41.3953ZM80.6414 25.6489C80.8118 25.8023 80.947 25.9844 81.0393 26.1849C81.1316 26.3854 81.1793 26.6003 81.1795 26.8174C81.1797 27.0345 81.1325 27.2496 81.0406 27.4502C80.9486 27.6509 80.8138 27.8332 80.6437 27.9869C80.4737 28.1405 80.2717 28.2624 80.0494 28.3457C79.8271 28.429 79.5888 28.4719 79.3481 28.4721C79.1073 28.4723 78.8689 28.4297 78.6465 28.3468C78.424 28.2639 78.2218 28.1423 78.0514 27.9889C77.7137 27.6781 77.5256 27.2596 77.528 26.8245C77.5305 26.3893 77.7232 25.9725 78.0644 25.6648C78.4056 25.3571 78.8677 25.1832 79.3503 25.181C79.8328 25.1788 80.2968 25.3443 80.6414 25.6489ZM46.3423 73.422C45.9911 73.9703 45.413 74.3705 44.7349 74.5348C44.0568 74.699 43.3341 74.6138 42.7256 74.2979C42.1369 73.9722 41.7124 73.452 41.5426 72.8482C41.3729 72.2444 41.4712 71.6046 41.8167 71.0652C42.1621 70.5258 42.7275 70.1294 43.3922 69.9603C44.057 69.7912 44.7687 69.8629 45.3757 70.1601C45.9837 70.4768 46.4275 70.9982 46.6096 71.6098C46.7917 72.2214 46.6926 72.8731 46.3423 73.422ZM68.5193 27.2548C68.6483 27.286 68.7693 27.3399 68.8753 27.4133C68.9813 27.4867 69.0702 27.5782 69.137 27.6825C69.2038 27.7869 69.2471 27.9022 69.2645 28.0216C69.2819 28.1411 69.2731 28.2626 69.2385 28.379C69.2038 28.4954 69.1441 28.6045 69.0628 28.7001C68.9814 28.7957 68.8799 28.8759 68.7642 28.9361C68.6484 28.9963 68.5207 29.0354 68.3882 29.0511C68.2557 29.0668 68.1211 29.0588 67.992 29.0276C67.7314 28.9645 67.5091 28.8107 67.3743 28.5998C67.2394 28.389 67.2029 28.1385 67.2728 27.9034C67.3427 27.6684 67.5133 27.4679 67.7471 27.3463C67.9809 27.2247 68.2586 27.1917 68.5193 27.2548ZM56.7764 76.6296C56.5801 77.2879 56.102 77.8488 55.4471 78.1891C54.7922 78.5294 54.0143 78.6211 53.2845 78.4441C52.5546 78.2671 51.9327 77.8359 51.5553 77.2453C51.178 76.6547 51.0763 75.9531 51.2726 75.2949C51.3698 74.9689 51.5372 74.6635 51.7653 74.3959C51.9933 74.1283 52.2776 73.9039 52.6019 73.7354C52.9261 73.5669 53.284 73.4576 53.6551 73.4139C54.0261 73.3701 54.4031 73.3927 54.7645 73.4804C55.1259 73.568 55.4646 73.719 55.7613 73.9247C56.0579 74.1304 56.3068 74.3868 56.4936 74.6792C56.6804 74.9717 56.8016 75.2944 56.8501 75.6291C56.8986 75.9637 56.8735 76.3037 56.7764 76.6296ZM68.5193 52.7452C68.3899 52.7764 68.255 52.7844 68.1222 52.7685C67.9894 52.7527 67.8614 52.7135 67.7455 52.6531C67.6295 52.5927 67.5279 52.5122 67.4464 52.4164C67.3649 52.3205 67.3051 52.2112 67.2705 52.0945C67.2359 51.9778 67.2271 51.8561 67.2446 51.7364C67.2621 51.6166 67.3056 51.5012 67.3726 51.3966C67.4396 51.292 67.5288 51.2004 67.6351 51.1269C67.7414 51.0534 67.8626 50.9995 67.992 50.9682C68.2533 50.9052 68.5316 50.9383 68.7658 51.0604C69 51.1824 69.1709 51.3833 69.2408 51.619C69.3107 51.8546 69.274 52.1056 69.1386 52.3168C69.0033 52.528 68.7805 52.6821 68.5193 52.7452ZM67.7793 77.247C67.7793 77.9771 67.4577 78.6774 66.8852 79.1937C66.3128 79.71 65.5363 80 64.7268 80C64.3255 80.0005 63.9281 79.9297 63.5572 79.7916C63.1863 79.6535 62.8493 79.4508 62.5653 79.1951C62.2814 78.9394 62.0561 78.6358 61.9024 78.3015C61.7487 77.9672 61.6696 77.6089 61.6696 77.247C61.6696 76.5168 61.9912 75.8166 62.5637 75.3003C63.1361 74.784 63.9126 74.494 64.7221 74.494C65.5317 74.494 66.3081 74.784 66.8806 75.3003C67.453 75.8166 67.7793 76.5168 67.7793 77.247ZM60.9759 52.545C60.7679 52.4932 60.5911 52.3696 60.4837 52.2008C60.3763 52.0321 60.3471 51.832 60.4024 51.644C60.4598 51.4565 60.5969 51.2969 60.7839 51.2001C60.971 51.1032 61.1929 51.0769 61.4014 51.1268C61.6099 51.1776 61.7875 51.3012 61.895 51.4701C62.0026 51.6391 62.0313 51.8397 61.9749 52.0277C61.9184 52.2158 61.7815 52.376 61.5942 52.473C61.4068 52.57 61.1844 52.5959 60.9759 52.545ZM60.6521 58.2637C60.5614 58.5696 60.3396 58.8304 60.0356 58.9889C59.7316 59.1473 59.3702 59.1903 59.0311 59.1084C58.6919 59.0265 58.4027 58.8265 58.227 58.5523C58.0514 58.2781 58.0037 57.9523 58.0945 57.6464C58.1966 57.3528 58.4206 57.1061 58.7196 56.9579C59.0186 56.8097 59.3696 56.7714 59.6992 56.8511C60.0287 56.9308 60.3114 57.1223 60.4881 57.3855C60.6649 57.6488 60.722 57.9634 60.6475 58.2637M47.716 48.7825C47.8464 48.993 47.8796 49.2414 47.8086 49.4738C47.7376 49.7063 47.568 49.9042 47.3365 50.0248C47.105 50.1454 46.8301 50.1789 46.5714 50.1182C46.3126 50.0574 46.0908 49.9073 45.9538 49.7002C45.8195 49.4899 45.783 49.2401 45.8523 49.0056C45.9217 48.7711 46.0912 48.5709 46.3238 48.4488C46.4395 48.3882 46.5673 48.3487 46.6999 48.3326C46.8325 48.3166 46.9673 48.3243 47.0966 48.3553C47.226 48.3863 47.3472 48.4399 47.4535 48.5133C47.5598 48.5866 47.649 48.6781 47.716 48.7825ZM55.4397 56.6328C55.3622 56.7624 55.2566 56.8768 55.1292 56.969C55.0018 57.0612 54.8552 57.1294 54.698 57.1696C54.5408 57.2097 54.3763 57.2211 54.2142 57.2029C54.0521 57.1847 53.8957 57.1373 53.7543 57.0636C53.6128 56.9899 53.4892 56.8914 53.3908 56.7738C53.2923 56.6563 53.221 56.5221 53.1811 56.3792C53.1411 56.2364 53.1334 56.0877 53.1583 55.9421C53.1832 55.7965 53.2403 55.6569 53.3261 55.5316C53.488 55.2782 53.7549 55.0933 54.068 55.0174C54.3811 54.9415 54.7148 54.9809 54.9957 55.127C55.2766 55.273 55.4817 55.5137 55.5658 55.7961C55.65 56.0785 55.6017 56.3794 55.4397 56.6328ZM55.5137 49.0203C55.399 49.1237 55.2435 49.1818 55.0813 49.1818C54.9191 49.1818 54.7635 49.1237 54.6489 49.0203C54.5342 48.9168 54.4697 48.7766 54.4697 48.6303C54.4697 48.484 54.5342 48.3437 54.6489 48.2403C54.764 48.1376 54.9194 48.08 55.0813 48.08C55.2432 48.08 55.3986 48.1376 55.5137 48.2403C55.6276 48.3441 55.6914 48.4842 55.6914 48.6303C55.6914 48.7763 55.6276 48.9164 55.5137 49.0203ZM50.9072 52.399C51.0111 52.4929 51.0934 52.6044 51.1495 52.727C51.2056 52.8497 51.2344 52.9811 51.2341 53.1137C51.2339 53.2464 51.2047 53.3777 51.1483 53.5002C51.0918 53.6227 51.0091 53.734 50.9049 53.8276C50.8008 53.9213 50.6772 53.9955 50.5412 54.0461C50.4052 54.0967 50.2595 54.1227 50.1124 54.1225C49.9653 54.1223 49.8197 54.0959 49.6839 54.045C49.5481 53.9941 49.4247 53.9195 49.3208 53.8255C49.216 53.7324 49.1327 53.6214 49.0758 53.4989C49.019 53.3764 48.9897 53.245 48.9897 53.1123C48.9897 52.9795 49.019 52.8481 49.0758 52.7256C49.1327 52.6032 49.216 52.4921 49.3208 52.399C49.4242 52.3038 49.5476 52.2281 49.6838 52.1764C49.82 52.1248 49.9663 52.0982 50.114 52.0982C50.2618 52.0982 50.4081 52.1248 50.5443 52.1764C50.6805 52.2281 50.8039 52.3038 50.9072 52.399ZM51.268 63.8949C51.162 64.0628 51.0202 64.2101 50.8506 64.3283C50.6811 64.4464 50.4872 64.533 50.2803 64.5831C50.0734 64.6331 49.8575 64.6456 49.6451 64.6199C49.4328 64.5941 49.2283 64.5306 49.0433 64.433C48.7646 64.2878 48.5398 64.0713 48.3974 63.8108C48.2551 63.5504 48.2015 63.2578 48.2435 62.9699C48.2855 62.6821 48.4212 62.4119 48.6334 62.1936C48.8457 61.9753 49.1249 61.8186 49.4359 61.7434C49.7468 61.6682 50.0755 61.6778 50.3804 61.771C50.6853 61.8643 50.9527 62.0369 51.1487 62.2672C51.3448 62.4975 51.4608 62.775 51.482 63.0647C51.5033 63.3545 51.4288 63.6433 51.268 63.8949ZM96.5561 64.0158C97.2418 64.6359 97.6269 65.476 97.6269 66.3517C97.6269 67.2275 97.2418 68.0676 96.5561 68.6876C95.8581 69.2557 94.9448 69.5604 94.005 69.5387C93.0651 69.5169 92.1703 69.1705 91.5055 68.5709C90.8407 67.9713 90.4565 67.1644 90.4325 66.3167C90.4084 65.469 90.7462 64.6454 91.3761 64.0158C92.0636 63.3974 92.995 63.0501 93.9661 63.0501C94.9371 63.0501 95.8686 63.3974 96.5561 64.0158ZM89.0636 55.6317C88.4086 55.2898 87.931 54.7273 87.7358 54.0679C87.5407 53.4084 87.644 52.7061 88.0229 52.1153C88.402 51.5257 89.0249 51.0958 89.7549 50.9199C90.485 50.7439 91.2626 50.8363 91.9172 51.1768C92.5331 51.535 92.9726 52.0932 93.1446 52.7358C93.3166 53.3783 93.2079 54.0558 92.841 54.628C92.4741 55.2002 91.8772 55.6232 91.174 55.8093C90.4707 55.9953 89.7151 55.9303 89.0636 55.6275M104.072 60.4661C103.804 60.8838 103.449 61.2499 103.025 61.5436C102.6 61.8372 102.116 62.0527 101.6 62.1776C101.083 62.3025 100.545 62.3344 100.015 62.2716C99.4845 62.2088 98.9733 62.0524 98.5102 61.8114C98.047 61.5703 97.6411 61.2494 97.3155 60.8669C96.9899 60.4844 96.751 60.0478 96.6125 59.582C96.474 59.1162 96.4386 58.6304 96.5083 58.1523C96.5779 57.6742 96.7514 57.2131 97.0186 56.7955C97.5583 55.9519 98.4475 55.3363 99.4905 55.084C100.533 54.8317 101.645 54.9635 102.58 55.4502C103.515 55.937 104.198 56.7389 104.478 57.6796C104.758 58.6202 104.611 59.6226 104.072 60.4661ZM70.4618 59.2982C70.2651 59.3544 70.0577 59.3741 69.8523 59.3561C69.6469 59.338 69.4477 59.2826 69.2668 59.1931C69.0858 59.1036 68.9268 58.982 68.7995 58.8355C68.6721 58.6891 68.579 58.5208 68.5258 58.341C68.4726 58.1612 68.4604 57.9735 68.4899 57.7893C68.5194 57.605 68.59 57.4281 68.6975 57.2692C68.805 57.1104 68.947 56.9728 69.1151 56.8648C69.2832 56.7568 69.4739 56.6807 69.6755 56.6411C70.0668 56.5471 70.4835 56.5971 70.8339 56.7801C71.1843 56.9632 71.4398 57.2643 71.544 57.6172C71.6483 57.9701 71.5928 58.3459 71.3899 58.6619C71.1869 58.978 70.8531 59.2042 70.4618 59.2982ZM111 39.9979C111 40.5775 110.873 41.1513 110.628 41.6868C110.382 42.2222 110.021 42.7087 109.567 43.1185C109.112 43.5283 108.573 43.8534 107.979 44.0751C107.386 44.2969 106.749 44.4111 106.107 44.4111C105.464 44.4111 104.828 44.2969 104.234 44.0751C103.64 43.8534 103.101 43.5283 102.647 43.1185C102.192 42.7087 101.832 42.2222 101.586 41.6868C101.34 41.1513 101.213 40.5775 101.213 39.9979C101.213 38.8275 101.729 37.705 102.647 36.8773C103.564 36.0497 104.809 35.5848 106.107 35.5848C107.405 35.5848 108.649 36.0497 109.567 36.8773C110.484 37.705 111 38.8275 111 39.9979ZM109.011 50.6929C108.88 51.2262 108.631 51.7301 108.278 52.1741C107.925 52.6181 107.476 52.993 106.958 53.2763C106.44 53.5597 105.864 53.7455 105.265 53.8226C104.665 53.8997 104.054 53.8665 103.469 53.7251C102.884 53.5836 102.337 53.3367 101.861 52.9994C101.384 52.662 100.989 52.2412 100.698 51.7622C100.406 51.2832 100.226 50.756 100.167 50.2124C100.107 49.6687 100.171 49.1199 100.353 48.599C100.701 47.6049 101.461 46.7703 102.475 46.2692C103.488 45.768 104.677 45.639 105.793 45.909C106.91 46.179 107.868 46.8272 108.467 47.7185C109.067 48.6097 109.261 49.6752 109.011 50.6929ZM78.5648 75.2239C78.682 75.5983 78.7155 75.99 78.6635 76.3761C78.6114 76.7623 78.4748 77.1352 78.2616 77.4734C78.0484 77.8115 77.7628 78.1081 77.4214 78.3459C77.0801 78.5836 76.6897 78.7579 76.2731 78.8585C75.8564 78.959 75.4218 78.9839 74.9944 78.9317C74.5669 78.8795 74.1553 78.7513 73.7833 78.5544C73.4113 78.3575 73.0864 78.0959 72.8274 77.7849C72.5685 77.4738 72.3806 77.1194 72.2748 76.7423C72.0516 75.99 72.1689 75.1886 72.6008 74.5143C73.0328 73.84 73.744 73.3481 74.578 73.1467C75.4121 72.9454 76.3007 73.0512 77.0484 73.4407C77.796 73.8303 78.3415 74.4717 78.5648 75.2239ZM88.3929 70.7107C88.8494 71.428 88.9724 72.2792 88.7349 73.0781C88.4974 73.8769 87.9188 74.5585 87.1257 74.9737C86.3303 75.3854 85.3865 75.4963 84.5008 75.2821C83.615 75.0679 82.8593 74.5461 82.3989 73.8308C81.941 73.113 81.8172 72.2608 82.0547 71.461C82.2923 70.6611 82.8718 69.9788 83.6662 69.5636C84.4616 69.1519 85.4053 69.041 86.2911 69.2552C87.1769 69.4694 87.9326 69.9912 88.3929 70.7065V70.7107ZM70.2536 66.3934C70.1717 66.1357 70.1476 65.8658 70.1826 65.5995C70.2176 65.3332 70.3111 65.0758 70.4576 64.8425C70.6041 64.6091 70.8006 64.4044 71.0358 64.2404C71.271 64.0763 71.5401 63.9561 71.8273 63.8868C72.1145 63.8176 72.4142 63.8006 72.7088 63.8369C73.0034 63.8733 73.287 63.9622 73.5431 64.0984C73.7991 64.2347 74.0225 64.4156 74.2002 64.6306C74.3779 64.8456 74.5064 65.0904 74.578 65.3506C74.7195 65.8642 74.6316 66.4074 74.3334 66.8631C74.0353 67.3189 73.5506 67.6509 72.9837 67.7876C72.4169 67.9243 71.8132 67.8548 71.3026 67.594C70.792 67.3333 70.4153 66.9022 70.2536 66.3934ZM80.8125 65.1087C80.2514 65.4008 79.5845 65.4798 78.9587 65.3284C78.3329 65.1771 77.7994 64.8077 77.4756 64.3016C77.1518 63.7955 77.0641 63.194 77.232 62.6296C77.3998 62.0652 77.8094 61.5841 78.3705 61.292C78.6484 61.1474 78.9551 61.0536 79.2732 61.0159C79.5913 60.9782 79.9145 60.9974 80.2244 61.0723C80.5342 61.1473 80.8247 61.2765 81.0792 61.4527C81.3336 61.6289 81.5471 61.8486 81.7075 62.0992C81.8678 62.3498 81.9719 62.6264 82.0137 62.9133C82.0555 63.2002 82.0342 63.4916 81.9511 63.7711C81.868 64.0506 81.7247 64.3125 81.5293 64.542C81.334 64.7715 81.0904 64.9641 80.8125 65.1087ZM58.7975 66.2766C58.6718 66.7004 58.3646 67.0617 57.9435 67.2811C57.5224 67.5005 57.0219 67.5601 56.5521 67.4467C56.0823 67.3333 55.6816 67.0562 55.4383 66.6764C55.1951 66.2967 55.129 65.8453 55.2547 65.4215C55.3805 64.9984 55.6874 64.6376 56.1081 64.4186C56.5288 64.1996 57.0287 64.1402 57.4979 64.2536C57.967 64.367 58.3671 64.6439 58.6099 65.0232C58.8528 65.4026 58.9186 65.8535 58.7929 66.2766M54.6442 31.7556C54.5874 31.7043 54.5424 31.6435 54.5117 31.5766C54.4809 31.5097 54.4651 31.438 54.4651 31.3656C54.4651 31.2931 54.4809 31.2214 54.5117 31.1545C54.5424 31.0876 54.5874 31.0268 54.6442 30.9755C54.701 30.9243 54.7684 30.8837 54.8426 30.856C54.9168 30.8283 54.9964 30.814 55.0767 30.814C55.157 30.814 55.2365 30.8283 55.3107 30.856C55.3849 30.8837 55.4523 30.9243 55.5091 30.9755C55.6238 31.079 55.6882 31.2193 55.6882 31.3656C55.6882 31.5118 55.6238 31.6521 55.5091 31.7556C55.3944 31.859 55.2389 31.9171 55.0767 31.9171C54.9145 31.9171 54.7589 31.859 54.6442 31.7556ZM54.9957 24.8689C54.8566 24.9414 54.7031 24.9886 54.5438 25.0077C54.3845 25.0267 54.2226 25.0173 54.0673 24.9799C53.9121 24.9425 53.7665 24.8779 53.6389 24.7898C53.5114 24.7017 53.4043 24.5918 53.3238 24.4663C53.2433 24.3409 53.191 24.2024 53.1699 24.0587C53.1488 23.9151 53.1592 23.7691 53.2007 23.629C53.2421 23.489 53.3137 23.3577 53.4114 23.2427C53.5091 23.1276 53.631 23.031 53.7701 22.9584C54.051 22.8119 54.385 22.7719 54.6985 22.8474C55.0121 22.9229 55.2795 23.1076 55.442 23.361C55.6046 23.6143 55.6489 23.9155 55.5652 24.1983C55.4815 24.4811 55.2766 24.7223 54.9957 24.8689ZM51.2633 4.70098C51.0671 4.04274 51.1688 3.34115 51.5461 2.75054C51.9234 2.15994 52.5454 1.7287 53.2752 1.5517C54.0051 1.37469 54.783 1.46642 55.4378 1.8067C56.0927 2.14698 56.5709 2.70795 56.7671 3.36618C56.8643 3.69211 56.8893 4.0321 56.8408 4.36676C56.7923 4.70141 56.6712 5.02418 56.4844 5.31661C56.1071 5.90722 55.4851 6.33846 54.7552 6.51546C54.0254 6.69246 53.2475 6.60074 52.5926 6.26045C51.9378 5.92017 51.4596 5.35921 51.2633 4.70098ZM47.3413 29.9578C47.4591 30.0171 47.5625 30.0969 47.6457 30.1926C47.7289 30.2883 47.7902 30.3979 47.826 30.5152C47.8619 30.6324 47.8715 30.7549 47.8544 30.8755C47.8372 30.9961 47.7937 31.1125 47.7262 31.2178C47.6588 31.3231 47.5689 31.4153 47.4616 31.4889C47.3543 31.5626 47.2319 31.6163 47.1014 31.647C46.9709 31.6776 46.835 31.6845 46.7015 31.6674C46.568 31.6502 46.4396 31.6093 46.3238 31.547C46.0912 31.425 45.9217 31.2248 45.8523 30.9902C45.783 30.7557 45.8195 30.5059 45.9538 30.2956C46.0884 30.0851 46.31 29.9313 46.5701 29.868C46.8302 29.8046 47.1076 29.8369 47.3413 29.9578ZM50.9026 26.1703C51.113 26.36 51.2311 26.6173 51.2311 26.8857C51.2311 27.154 51.113 27.4113 50.9026 27.601C50.6922 27.7907 50.4069 27.8973 50.1094 27.8973C49.8119 27.8973 49.5266 27.7907 49.3162 27.601C49.2121 27.5071 49.1294 27.3955 49.0731 27.2728C49.0167 27.1501 48.9877 27.0185 48.9877 26.8857C48.9877 26.7528 49.0167 26.6212 49.0731 26.4985C49.1294 26.3758 49.2121 26.2642 49.3162 26.1703C49.4204 26.0763 49.544 26.0018 49.6801 25.951C49.8162 25.9001 49.9621 25.874 50.1094 25.874C50.2567 25.874 50.4026 25.9001 50.5387 25.951C50.6748 26.0018 50.7984 26.0763 50.9026 26.1703ZM48.4421 17.5692C48.2262 17.2318 48.1678 16.8309 48.2797 16.4546C48.3916 16.0783 48.6646 15.7576 49.0387 15.5629C49.4128 15.3682 49.8574 15.3155 50.2746 15.4164C50.6918 15.5173 51.0475 15.7635 51.2633 16.1009C51.4792 16.4384 51.5377 16.8393 51.4258 17.2156C51.3139 17.5918 51.0408 17.9126 50.6667 18.1073C50.2926 18.302 49.848 18.3547 49.4308 18.2538C49.0136 18.1529 48.658 17.9066 48.4421 17.5692ZM61.6604 2.75301C61.6604 2.02287 61.982 1.32263 62.5544 0.806338C63.1269 0.290049 63.9033 0 64.7129 0C65.5225 0 66.2989 0.290049 66.8713 0.806338C67.4438 1.32263 67.7654 2.02287 67.7654 2.75301C67.7654 3.48316 67.4438 4.18339 66.8713 4.69968C66.2989 5.21597 65.5225 5.50602 64.7129 5.50602C63.9033 5.50602 63.1269 5.21597 62.5544 4.69968C61.982 4.18339 61.6604 3.48316 61.6604 2.75301ZM60.9712 27.455C61.075 27.4286 61.1836 27.421 61.2906 27.4328C61.3977 27.4445 61.5011 27.4753 61.5948 27.5234C61.6885 27.5715 61.7707 27.6358 61.8366 27.7128C61.9026 27.7898 61.9508 27.8778 61.9787 27.9717C62.0066 28.0657 62.0135 28.1637 61.999 28.2601C61.9846 28.3564 61.949 28.4492 61.8944 28.5331C61.8399 28.617 61.7674 28.6903 61.6811 28.7486C61.5949 28.807 61.4967 28.8494 61.3921 28.8732C61.1869 28.9143 60.9721 28.8821 60.7926 28.7836C60.6131 28.685 60.4828 28.5276 60.429 28.3444C60.3752 28.1611 60.4021 27.9662 60.5041 27.8005C60.606 27.6347 60.7751 27.5109 60.9759 27.455M56.5497 12.5512C57.0181 12.4402 57.5161 12.5009 57.9349 12.7202C58.3537 12.9394 58.6592 13.2993 58.7845 13.7212C58.9099 14.143 58.8449 14.5925 58.6038 14.9712C58.3626 15.35 57.965 15.6272 57.4979 15.7422C57.0287 15.8556 56.5288 15.7963 56.1081 15.5772C55.6874 15.3582 55.3805 14.9974 55.2547 14.5743C55.1303 14.1512 55.1967 13.7008 55.4393 13.3217C55.682 12.9426 56.0812 12.6656 56.5497 12.5512ZM59.0241 20.8895C59.3633 20.8077 59.7246 20.8507 60.0286 21.0091C60.3326 21.1675 60.5544 21.4283 60.6452 21.7342C60.736 22.0401 60.6883 22.366 60.5126 22.6401C60.337 22.9143 60.0478 23.1143 59.7086 23.1962C59.5407 23.2367 59.3655 23.247 59.1932 23.2265C59.0208 23.206 58.8546 23.1551 58.7041 23.0767C58.4001 22.9183 58.1783 22.6574 58.0876 22.3515C57.9968 22.0456 58.0445 21.7198 58.2201 21.4456C58.3957 21.1714 58.685 20.9714 59.0241 20.8895ZM41.7636 8.9598C41.589 8.68864 41.4757 8.38902 41.43 8.07819C41.3844 7.76737 41.4074 7.45146 41.4976 7.14868C41.5879 6.84589 41.7437 6.56219 41.956 6.31392C42.1684 6.06565 42.433 5.85771 42.7348 5.70207C43.3394 5.42653 44.038 5.37024 44.6872 5.54475C45.3363 5.71927 45.8867 6.11135 46.2253 6.64046C46.564 7.16956 46.6651 7.79553 46.5079 8.38978C46.3508 8.98403 45.9473 9.50145 45.3803 9.83576C45.0795 9.99384 44.7469 10.0966 44.4018 10.1381C44.0566 10.1796 43.7058 10.1591 43.3695 10.0776C43.0333 9.99618 42.7182 9.85547 42.4426 9.66361C42.1669 9.47175 41.9361 9.23254 41.7636 8.9598ZM40.0523 52.7786C40.1325 52.904 40.1845 53.0424 40.2053 53.186C40.2262 53.3296 40.2155 53.4754 40.1738 53.6153C40.1321 53.7551 40.0604 53.8861 39.9625 54.001C39.8647 54.1158 39.7428 54.2121 39.6037 54.2844C39.4646 54.3567 39.3111 54.4036 39.1519 54.4224C38.9927 54.4412 38.831 54.4315 38.676 54.3939C38.5209 54.3564 38.3756 54.2916 38.2483 54.2034C38.121 54.1152 38.0142 54.0052 37.9341 53.8798C37.7721 53.6264 37.7285 53.3255 37.8126 53.0431C37.8967 52.7607 38.1018 52.52 38.3827 52.3739C38.6636 52.2279 38.9973 52.1885 39.3104 52.2644C39.6235 52.3403 39.8904 52.5252 40.0523 52.7786ZM22.7548 29.403C22.8261 29.1578 22.9507 28.9277 23.1212 28.7262C23.2917 28.5246 23.5049 28.3555 23.7483 28.2287C23.9917 28.1019 24.2606 28.0198 24.5394 27.9872C24.8181 27.9547 25.1013 27.9723 25.3725 28.039C25.6444 28.1034 25.8995 28.2157 26.123 28.3695C26.3465 28.5233 26.534 28.7155 26.6746 28.935C26.8152 29.1546 26.9062 29.3971 26.9423 29.6485C26.9784 29.8999 26.9589 30.1553 26.8849 30.3999C26.8135 30.6451 26.689 30.8752 26.5185 31.0767C26.3479 31.2783 26.1348 31.4474 25.8914 31.5742C25.648 31.701 25.3791 31.7831 25.1003 31.8157C24.8215 31.8482 24.5384 31.8306 24.2672 31.7639C23.9947 31.6996 23.7392 31.5871 23.5154 31.433C23.2915 31.2789 23.1038 31.0863 22.9631 30.8663C22.8224 30.6463 22.7316 30.4033 22.6958 30.1514C22.66 29.8995 22.6801 29.6437 22.7548 29.3988M26.9173 20.3473C27.1388 20.0018 27.4688 19.7233 27.8656 19.5469C28.2625 19.3705 28.7084 19.3041 29.1471 19.3562C29.5858 19.4082 29.9975 19.5763 30.3303 19.8393C30.6631 20.1022 30.902 20.4482 31.0169 20.8336C31.1318 21.2189 31.1175 21.6264 30.9758 22.0044C30.8341 22.3824 30.5714 22.7141 30.2208 22.9575C29.8702 23.2009 29.4475 23.3452 29.0061 23.3721C28.5646 23.399 28.1242 23.3073 27.7405 23.1086C27.2256 22.8407 26.8497 22.3993 26.6953 21.8816C26.5409 21.3638 26.6208 20.812 26.9173 20.3473ZM37.2311 64.7375C37.6872 65.1516 37.9432 65.7117 37.9432 66.2954C37.9432 66.8792 37.6872 67.4392 37.2311 67.8534C36.7717 68.266 36.1497 68.4977 35.5013 68.4977C34.8529 68.4977 34.231 68.266 33.7716 67.8534C33.3154 67.4392 33.0594 66.8792 33.0594 66.2954C33.0594 65.7117 33.3154 65.1516 33.7716 64.7375C34.231 64.3248 34.8529 64.0931 35.5013 64.0931C36.1497 64.0931 36.7717 64.3248 37.2311 64.7375ZM30.8809 57.5546C31.0282 57.7844 31.1239 58.0381 31.1624 58.3012C31.201 58.5644 31.1817 58.8318 31.1057 59.0882C31.0297 59.3446 30.8984 59.585 30.7194 59.7957C30.5404 60.0063 30.3171 60.1831 30.0623 60.316C29.8075 60.4488 29.5262 60.5351 29.2344 60.5699C28.9427 60.6046 28.6462 60.5873 28.3619 60.5187C28.0776 60.4502 27.811 60.3318 27.5774 60.1703C27.3438 60.0088 27.1478 59.8075 27.0005 59.5777C26.8532 59.3479 26.7576 59.0942 26.719 58.831C26.6804 58.5679 26.6997 58.3005 26.7757 58.0441C26.8518 57.7877 26.983 57.5473 27.1621 57.3366C27.3411 57.1259 27.5644 56.9491 27.8192 56.8163C28.074 56.6835 28.3553 56.5972 28.647 56.5624C28.9388 56.5276 29.2353 56.545 29.5196 56.6136C29.8039 56.6821 30.0704 56.8005 30.304 56.962C30.5376 57.1234 30.7336 57.3248 30.8809 57.5546ZM33.7762 15.2584C33.3215 14.8444 33.0664 14.2852 33.0664 13.7025C33.0664 13.1198 33.3215 12.5606 33.7762 12.1466C34.2354 11.7352 34.8564 11.5044 35.5036 11.5044C36.1509 11.5044 36.7719 11.7352 37.2311 12.1466C37.6872 12.5608 37.9432 13.1208 37.9432 13.7046C37.9432 14.2883 37.6872 14.8484 37.2311 15.2625C36.7719 15.6739 36.1509 15.9048 35.5036 15.9048C34.8564 15.9048 34.2354 15.6739 33.7762 15.2625M44.719 22.0199C44.4505 22.2594 44.0882 22.3937 43.7107 22.3937C43.3332 22.3937 42.9709 22.2594 42.7025 22.0199C42.437 21.7778 42.288 21.4511 42.288 21.1106C42.288 20.7701 42.437 20.4433 42.7025 20.2013C42.9709 19.9618 43.3332 19.8275 43.7107 19.8275C44.0882 19.8275 44.4505 19.9618 44.719 20.2013C44.9845 20.4433 45.1334 20.7701 45.1334 21.1106C45.1334 21.4511 44.9845 21.7778 44.719 22.0199ZM44.719 57.9884C44.8552 58.107 44.9638 58.2489 45.0386 58.4058C45.1133 58.5627 45.1526 58.7314 45.1541 58.9022C45.1557 59.0729 45.1195 59.2422 45.0477 59.4002C44.9759 59.5582 44.8698 59.7017 44.7358 59.8223C44.6018 59.9429 44.4424 60.0382 44.2671 60.1026C44.0918 60.167 43.9039 60.1993 43.7146 60.1975C43.5253 60.1957 43.3383 60.1599 43.1645 60.0921C42.9907 60.0244 42.8336 59.926 42.7025 59.8029C42.435 59.5617 42.2848 59.2346 42.2848 58.8936C42.2848 58.5525 42.435 58.2254 42.7025 57.9843C42.9699 57.7431 43.3325 57.6076 43.7107 57.6076C44.0889 57.6076 44.4515 57.7473 44.719 57.9884ZM37.9387 26.1161C38.0162 25.9864 38.1218 25.8721 38.2492 25.7799C38.3766 25.6877 38.5233 25.6195 38.6804 25.5793C38.8376 25.5391 39.0021 25.5278 39.1642 25.546C39.3263 25.5642 39.4827 25.6115 39.6241 25.6852C39.7656 25.7589 39.8892 25.8575 39.9877 25.975C40.0861 26.0926 40.1574 26.2267 40.1974 26.3696C40.2373 26.5125 40.245 26.6611 40.2201 26.8067C40.1952 26.9523 40.1381 27.0919 40.0523 27.2173C39.8904 27.4706 39.6235 27.6556 39.3104 27.7314C38.9973 27.8073 38.6636 27.7679 38.3827 27.6219C38.1018 27.4758 37.8967 27.2352 37.8126 26.9528C37.7285 26.6704 37.7721 26.3694 37.9341 26.1161" fill="black"/>
</svg>
