<svg width="38" height="43" viewBox="0 0 38 43" fill="none" xmlns="http://www.w3.org/2000/svg">
<path d="M36.6564 14.7296C38.9294 12.1577 37.8929 9.15373 36.6564 7.69288L31.2013 1.52031C28.9101 -1.05159 26.2735 0.121196 24.9824 1.52031L21.8912 5.03868H17.1816C13.7267 5.03868 11.7265 7.0962 10.7082 9.46236L2.63465 18.5978V26.8279L1.3436 28.2681C-0.929364 30.8606 0.107109 33.844 1.3436 35.3049L6.79872 41.4774C7.78064 42.5885 8.8353 43 9.8354 43C11.1264 43 12.3084 42.2799 13.0176 41.4774L17.9272 35.9015H24.4551C27.5464 35.9015 29.1102 33.7206 29.6739 31.5807C31.7286 30.9635 32.856 29.194 33.3106 27.4657C36.1291 26.6427 37.1837 23.6181 37.1837 21.4989V15.3263H36.1109L36.6564 14.7296ZM33.547 21.4989C33.547 22.4248 33.2015 23.5564 31.7286 23.5564H29.9102V25.6139C29.9102 26.5398 29.5647 27.6714 28.0919 27.6714H26.2735V29.729C26.2735 30.6549 25.928 31.7865 24.4551 31.7865H16.4361L10.4718 38.5352C9.90814 39.1319 9.58083 38.7821 9.38081 38.5558L3.94388 32.4243C3.41655 31.7865 3.72567 31.4161 3.92569 31.1898L6.27139 28.515V20.2849L9.90814 16.1699V19.4413C9.90814 21.931 11.3628 25.6139 15.3633 25.6139C19.3637 25.6139 20.8184 21.931 20.8184 19.4413H33.547V21.4989ZM34.0743 11.8079L30.9831 15.3263H17.1816V19.4413C17.1816 20.3672 16.8361 21.4989 15.3633 21.4989C13.8904 21.4989 13.5449 20.3672 13.5449 19.4413V13.2688C13.5449 12.3223 13.854 9.15373 17.1816 9.15373H23.3823L27.5282 4.46257C28.0919 3.86589 28.4192 4.21567 28.6192 4.442L34.0561 10.5734C34.5835 11.2113 34.2743 11.5816 34.0743 11.8079Z" fill="#3F3F3F"/>
</svg>
