<svg width="84" height="88" viewBox="0 0 84 88" fill="none" xmlns="http://www.w3.org/2000/svg">
<path d="M69.9881 84.4693C64.5605 89.1132 58.6345 88.38 52.9301 86.1802C46.8933 83.9316 41.355 83.8339 34.9859 86.1802C27.0108 89.211 22.8017 88.3311 18.0387 84.4693C-8.98825 59.8813 -5.00066 22.4372 25.6816 21.0685C33.1583 21.4106 38.3643 24.6858 42.7396 24.9791C49.2748 23.8059 55.5331 20.433 62.5114 20.8729C70.8742 21.4595 77.1879 24.3925 81.3416 29.6718C64.0621 38.8129 68.1604 58.9037 84 64.5252C80.8432 71.8576 76.7448 79.1411 69.9327 84.5182L69.9881 84.4693ZM42.1857 20.7752C41.355 9.87431 51.3794 0.879889 62.899 0C64.5051 12.6117 49.9394 21.9972 42.1857 20.7752Z" fill="black"/>
</svg>
