<svg width="28" height="35" viewBox="0 0 28 35" fill="none" xmlns="http://www.w3.org/2000/svg">
<mask id="path-1-inside-1_0_8" fill="white">
<path d="M25.2 35H2.8C2.05739 35 1.3452 34.7366 0.820101 34.2678C0.294999 33.7989 0 33.163 0 32.5V2.5C0 1.83696 0.294999 1.20107 0.820101 0.732233C1.3452 0.263392 2.05739 0 2.8 0H25.2C25.9426 0 26.6548 0.263392 27.1799 0.732233C27.705 1.20107 28 1.83696 28 2.5V23.2725L21 20.1475L14 23.2725V2.5H2.8V32.5H25.2V27.5H28V32.5C27.9989 33.1627 27.7035 33.798 27.1787 34.2667C26.6538 34.7353 25.9423 34.999 25.2 35ZM21 17.3525L25.2 19.2275V2.5H16.8V19.2275L21 17.3525Z"/>
</mask>
<path d="M25.2 35H2.8C2.05739 35 1.3452 34.7366 0.820101 34.2678C0.294999 33.7989 0 33.163 0 32.5V2.5C0 1.83696 0.294999 1.20107 0.820101 0.732233C1.3452 0.263392 2.05739 0 2.8 0H25.2C25.9426 0 26.6548 0.263392 27.1799 0.732233C27.705 1.20107 28 1.83696 28 2.5V23.2725L21 20.1475L14 23.2725V2.5H2.8V32.5H25.2V27.5H28V32.5C27.9989 33.1627 27.7035 33.798 27.1787 34.2667C26.6538 34.7353 25.9423 34.999 25.2 35ZM21 17.3525L25.2 19.2275V2.5H16.8V19.2275L21 17.3525Z" fill="#3F3F3F"/>
<path d="M25.2 35V38L25.204 38L25.2 35ZM0 32.5H-3H0ZM2.8 0V-3V0ZM28 23.2725L26.777 26.0119L31 27.8972V23.2725H28ZM21 20.1475L22.223 17.4081L21 16.8621L19.777 17.4081L21 20.1475ZM14 23.2725H11V27.8972L15.223 26.0119L14 23.2725ZM14 2.5H17V-0.5H14V2.5ZM2.8 2.5V-0.5H-0.2V2.5H2.8ZM2.8 32.5H-0.2V35.5H2.8V32.5ZM25.2 32.5V35.5H28.2V32.5H25.2ZM25.2 27.5V24.5H22.2V27.5H25.2ZM28 27.5H31V24.5H28V27.5ZM28 32.5L31 32.505V32.5H28ZM21 17.3525L22.223 14.6131L21 14.0671L19.777 14.6131L21 17.3525ZM25.2 19.2275L23.977 21.9669L28.2 23.8522V19.2275H25.2ZM25.2 2.5H28.2V-0.5H25.2V2.5ZM16.8 2.5V-0.5H13.8V2.5H16.8ZM16.8 19.2275H13.8V23.8522L18.023 21.9669L16.8 19.2275ZM25.2 35V32H2.8V35V38H25.2V35ZM2.8 35V32C2.79153 32 2.78416 31.9992 2.77829 31.9982C2.77542 31.9977 2.77315 31.9971 2.77153 31.9967C2.7699 31.9963 2.76909 31.996 2.7691 31.996C2.76912 31.996 2.77013 31.9963 2.7721 31.9973C2.77408 31.9982 2.77717 31.9998 2.78127 32.0022C2.78939 32.0071 2.80224 32.0158 2.81815 32.03L0.820101 34.2678L-1.17795 36.5056C-0.070949 37.494 1.36459 38 2.8 38V35ZM0.820101 34.2678L2.81815 32.03C2.88607 32.0906 3 32.2506 3 32.5H0H-3C-3 34.0755 -2.29607 35.5073 -1.17795 36.5056L0.820101 34.2678ZM0 32.5H3V2.5H0H-3V32.5H0ZM0 2.5H3C3 2.7494 2.88607 2.9094 2.81815 2.97005L0.820101 0.732233L-1.17795 -1.50558C-2.29607 -0.507253 -3 0.924522 -3 2.5H0ZM0.820101 0.732233L2.81815 2.97005C2.80224 2.98425 2.78938 2.99292 2.78127 2.99776C2.77716 3.0002 2.77408 3.00178 2.7721 3.00272C2.77013 3.00366 2.76911 3.00403 2.7691 3.00404C2.76909 3.00404 2.7699 3.00375 2.77153 3.0033C2.77315 3.00286 2.77542 3.00233 2.77829 3.00181C2.78416 3.00077 2.79153 3 2.8 3V0V-3C1.36459 -3 -0.0709477 -2.49397 -1.17795 -1.50558L0.820101 0.732233ZM2.8 0V3H25.2V0V-3H2.8V0ZM25.2 0V3C25.2085 3 25.2158 3.00077 25.2217 3.00181C25.2246 3.00233 25.2268 3.00286 25.2285 3.0033C25.2301 3.00375 25.2309 3.00404 25.2309 3.00404C25.2309 3.00403 25.2299 3.00366 25.2279 3.00272C25.2259 3.00178 25.2228 3.0002 25.2187 2.99776C25.2106 2.99292 25.1978 2.98425 25.1819 2.97005L27.1799 0.732233L29.1779 -1.50558C28.0709 -2.49397 26.6354 -3 25.2 -3V0ZM27.1799 0.732233L25.1819 2.97005C25.1139 2.9094 25 2.7494 25 2.5H28H31C31 0.92452 30.2961 -0.507254 29.1779 -1.50558L27.1799 0.732233ZM28 2.5H25V23.2725H28H31V2.5H28ZM28 23.2725L29.223 20.5331L22.223 17.4081L21 20.1475L19.777 22.8869L26.777 26.0119L28 23.2725ZM21 20.1475L19.777 17.4081L12.777 20.5331L14 23.2725L15.223 26.0119L22.223 22.8869L21 20.1475ZM14 23.2725H17V2.5H14H11V23.2725H14ZM14 2.5V-0.5H2.8V2.5V5.5H14V2.5ZM2.8 2.5H-0.2V32.5H2.8H5.8V2.5H2.8ZM2.8 32.5V35.5H25.2V32.5V29.5H2.8V32.5ZM25.2 32.5H28.2V27.5H25.2H22.2V32.5H25.2ZM25.2 27.5V30.5H28V27.5V24.5H25.2V27.5ZM28 27.5H25V32.5H28H31V27.5H28ZM28 32.5L25 32.495C25.0004 32.2472 25.1136 32.0887 25.1806 32.0289L27.1787 34.2667L29.1767 36.5045C30.2934 35.5074 30.9974 34.0783 31 32.505L28 32.5ZM27.1787 34.2667L25.1806 32.0289C25.1963 32.0149 25.2089 32.0063 25.2168 32.0016C25.2247 31.997 25.2287 31.9955 25.2283 31.9957C25.228 31.9958 25.2246 31.997 25.2184 31.9981C25.2123 31.9992 25.2047 32 25.196 32L25.2 35L25.204 38C26.6378 37.9981 28.0711 37.4917 29.1767 36.5045L27.1787 34.2667ZM21 17.3525L19.777 20.0919L23.977 21.9669L25.2 19.2275L26.423 16.4881L22.223 14.6131L21 17.3525ZM25.2 19.2275H28.2V2.5H25.2H22.2V19.2275H25.2ZM25.2 2.5V-0.5H16.8V2.5V5.5H25.2V2.5ZM16.8 2.5H13.8V19.2275H16.8H19.8V2.5H16.8ZM16.8 19.2275L18.023 21.9669L22.223 20.0919L21 17.3525L19.777 14.6131L15.577 16.4881L16.8 19.2275Z" fill="#3F3F3F" mask="url(#path-1-inside-1_0_8)"/>
</svg>
