<svg width="21" height="20" viewBox="0 0 21 20" fill="none" xmlns="http://www.w3.org/2000/svg">
<path d="M5.81616 0H14.2396C17.4485 0 20.0557 2.6 20.0557 5.8V14.2C20.0557 15.7383 19.4429 17.2135 18.3522 18.3012C17.2615 19.3889 15.7821 20 14.2396 20H5.81616C2.60724 20 0 17.4 0 14.2V5.8C0 4.26174 0.612772 2.78649 1.70351 1.69878C2.79425 0.61107 4.27362 0 5.81616 0ZM5.6156 2C4.65816 2 3.73994 2.37928 3.06292 3.05442C2.38591 3.72955 2.00557 4.64522 2.00557 5.6V14.4C2.00557 16.39 3.62006 18 5.6156 18H14.4401C15.3975 18 16.3158 17.6207 16.9928 16.9456C17.6698 16.2705 18.0501 15.3548 18.0501 14.4V5.6C18.0501 3.61 16.4357 2 14.4401 2H5.6156ZM15.2925 3.5C15.6249 3.5 15.9438 3.6317 16.1788 3.86612C16.4139 4.10054 16.546 4.41848 16.546 4.75C16.546 5.08152 16.4139 5.39946 16.1788 5.63388C15.9438 5.8683 15.6249 6 15.2925 6C14.96 6 14.6412 5.8683 14.4061 5.63388C14.1711 5.39946 14.039 5.08152 14.039 4.75C14.039 4.41848 14.1711 4.10054 14.4061 3.86612C14.6412 3.6317 14.96 3.5 15.2925 3.5ZM10.0279 5C11.3576 5 12.6329 5.52678 13.5732 6.46447C14.5135 7.40215 15.0418 8.67392 15.0418 10C15.0418 11.3261 14.5135 12.5979 13.5732 13.5355C12.6329 14.4732 11.3576 15 10.0279 15C8.69808 15 7.42277 14.4732 6.48247 13.5355C5.54218 12.5979 5.01393 11.3261 5.01393 10C5.01393 8.67392 5.54218 7.40215 6.48247 6.46447C7.42277 5.52678 8.69808 5 10.0279 5ZM10.0279 7C9.22999 7 8.4648 7.31607 7.90062 7.87868C7.33645 8.44129 7.0195 9.20435 7.0195 10C7.0195 10.7956 7.33645 11.5587 7.90062 12.1213C8.4648 12.6839 9.22999 13 10.0279 13C10.8257 13 11.5909 12.6839 12.1551 12.1213C12.7193 11.5587 13.0362 10.7956 13.0362 10C13.0362 9.20435 12.7193 8.44129 12.1551 7.87868C11.5909 7.31607 10.8257 7 10.0279 7Z" fill="white"/>
</svg>
