<svg width="188" height="75" viewBox="0 0 188 75" fill="none" xmlns="http://www.w3.org/2000/svg">
<path d="M36.5557 69.5342V74.7377H0V69.5342H36.5557ZM93.6835 69.5342C90.0167 72.8933 85.2134 74.7513 80.2323 74.7373L41.7779 74.6861V69.5342H93.6835ZM148.038 69.5342L146.214 74.7373L144.407 69.5342H148.038ZM130.556 69.5342V74.7377H104.445V69.5342H130.556ZM188 69.5342V74.7377H161.889V69.5342H188ZM99.5985 59.6012C99.1501 61.4264 98.4426 63.1784 97.4975 64.8044H41.7779V59.6012H99.5985ZM151.537 59.6012L149.705 64.8048H142.74L140.907 59.6012H151.537ZM130.556 59.6012V64.8044H104.445V59.6012H130.556ZM188 59.6012V64.8044H161.889V59.6012H188ZM36.5557 59.6012V64.8044H0V59.6012H36.5557ZM26.1107 49.6672V54.8707H10.4443V49.6672H26.1107ZM67.8886 49.6672V54.8707H52.2218V49.6672H67.8886ZM99.4729 49.6672C99.9357 51.3633 100.171 53.1131 100.171 54.8707H82.6062V49.6672H99.4729ZM155.037 49.6672L153.204 54.8707H139.24L137.406 49.6672H155.037ZM130.555 49.6672V54.8707H114.889V49.6672H130.555ZM177.555 49.6672V54.8707H161.889V49.6672H177.555ZM26.1107 39.7339V44.9371H10.4443V39.7339H26.1107ZM130.555 39.7339V44.9371H114.889V39.7339H130.555ZM177.555 39.7339V44.9371H161.889V39.7339H177.555ZM93.1353 39.7339C94.8745 41.2079 96.3478 42.9676 97.4912 44.9367H52.2221V39.7336L93.1353 39.7339ZM158.537 39.7339L156.704 44.9371H135.74L133.907 39.7336L158.537 39.7339ZM144.754 29.8006L146.222 34.0065L147.689 29.8006H177.555V35.0038H161.889V30.2232L160.204 35.0042H132.24L130.555 30.2225V35.0042H114.889V29.8006H144.754ZM52.2218 29.8006H97.492C96.3484 31.77 94.875 33.5298 93.1356 35.0038H52.2221L52.2218 29.8006ZM26.1107 29.8006V35.0038H10.4443V29.8003L26.1107 29.8006ZM26.1107 19.867V25.0701H10.4443V19.867H26.1107ZM67.8886 19.867V25.0701H52.2218V19.867H67.8886ZM100.172 19.867C100.171 21.6245 99.9358 23.3742 99.4729 25.0701H82.6062V19.867H100.172ZM141.287 19.867L143.103 25.0701H114.889V19.867H141.287ZM177.555 19.867V25.0701H149.341L151.157 19.867H177.555ZM36.555 9.93331V15.1368H0V9.93295L36.555 9.93331ZM97.4971 9.93331C98.4422 11.5593 99.1497 13.3114 99.5981 15.1365H41.7771V9.93331H97.4971ZM188 9.93331V15.1365H152.808L154.624 9.93331H188ZM137.82 9.93331L139.636 15.1365H104.444V9.93331H137.82ZM36.5561 0.0003844V5.20319H0V1.85463e-05L36.5561 0.0003844ZM80.2323 1.85463e-05C85.2121 -0.00676992 90.0128 1.85024 93.6835 5.20319H41.7779V1.85463e-05H80.2323ZM188 1.85463e-05V5.20356H156.275L158.091 0.0003844L188 1.85463e-05ZM134.354 1.85463e-05L136.17 5.20356H104.445V0.0003844L134.354 1.85463e-05Z" fill="black"/>
</svg>
