<svg width="93" height="78" viewBox="0 0 93 78" fill="none" xmlns="http://www.w3.org/2000/svg">
<path fill-rule="evenodd" clip-rule="evenodd" d="M16.9091 0C12.4245 0 8.12363 1.49415 4.95256 4.15376C1.78149 6.81336 0 10.4206 0 14.1818V63.8182C0 67.5794 1.78149 71.1866 4.95256 73.8462C8.12363 76.5058 12.4245 78 16.9091 78H76.0909C80.5755 78 84.8764 76.5058 88.0474 73.8462C91.2185 71.1866 93 67.5794 93 63.8182V14.1818C93 10.4206 91.2185 6.81336 88.0474 4.15376C84.8764 1.49415 80.5755 0 76.0909 0H16.9091ZM14.7955 63.1729V14.8271H78.2045V63.1729H14.7955ZM19.12 59.5459H50.8245L46.5 51.09H37.8552L46.5 32.955L60.915 59.5459H73.88L52.266 18.4541H40.734L19.12 59.5459Z" fill="black"/>
</svg>
