<svg width="20" height="20" viewBox="0 0 20 20" fill="none" xmlns="http://www.w3.org/2000/svg">
<path d="M17.0474 2.91005C16.1279 1.98416 15.0328 1.25002 13.8259 0.750416C12.619 0.250812 11.3245 -0.00426317 10.0178 5.38951e-05C4.54262 5.38951e-05 0.080223 4.45005 0.080223 9.91005C0.080223 11.6601 0.541504 13.3601 1.4039 14.8601L0 20.0001L5.26462 18.6201C6.71866 19.4101 8.3532 19.8301 10.0178 19.8301C15.493 19.8301 19.9554 15.3801 19.9554 9.92005C19.9554 7.27005 18.9226 4.78005 17.0474 2.91005ZM10.0178 18.1501C8.5337 18.1501 7.07967 17.7501 5.80613 17.0001L5.50529 16.8201L2.3766 17.6401L3.20891 14.6001L3.00836 14.2901C2.18361 12.9771 1.74577 11.4593 1.74485 9.91005C1.74485 5.37005 5.45515 1.67005 10.0078 1.67005C12.2139 1.67005 14.2897 2.53005 15.844 4.09005C16.6138 4.85392 17.2238 5.7626 17.6386 6.76338C18.0535 7.76417 18.2649 8.83714 18.2607 9.92005C18.2808 14.4601 14.5705 18.1501 10.0178 18.1501ZM14.5504 11.9901C14.2997 11.8701 13.0763 11.2701 12.8557 11.1801C12.6251 11.1001 12.4646 11.0601 12.2941 11.3001C12.1237 11.5501 11.6524 12.1101 11.512 12.2701C11.3716 12.4401 11.2212 12.4601 10.9705 12.3301C10.7198 12.2101 9.91755 11.9401 8.97493 11.1001C8.23287 10.4401 7.7415 9.63005 7.59109 9.38005C7.4507 9.13005 7.57103 9.00005 7.70139 8.87005C7.8117 8.76005 7.95209 8.58005 8.07242 8.44005C8.19276 8.30005 8.2429 8.19005 8.32312 8.03005C8.40334 7.86005 8.36323 7.72005 8.30306 7.60005C8.2429 7.48005 7.7415 6.26005 7.54095 5.76005C7.34039 5.28005 7.1298 5.34005 6.97939 5.33005H6.49805C6.32758 5.33005 6.06685 5.39005 5.83621 5.64005C5.6156 5.89005 4.97382 6.49005 4.97382 7.71005C4.97382 8.93005 5.8663 10.1101 5.98663 10.2701C6.10696 10.4401 7.7415 12.9401 10.2284 14.0101C10.8201 14.2701 11.2813 14.4201 11.6423 14.5301C12.234 14.7201 12.7755 14.6901 13.2067 14.6301C13.688 14.5601 14.6808 14.0301 14.8813 13.4501C15.0919 12.8701 15.0919 12.3801 15.0217 12.2701C14.9515 12.1601 14.8011 12.1101 14.5504 11.9901Z" fill="white"/>
</svg>
