<svg width="21" height="16" viewBox="0 0 21 16" fill="none" xmlns="http://www.w3.org/2000/svg">
<path d="M2.00557 16C1.45404 16 0.982061 15.8043 0.589638 15.413C0.197215 15.0217 0.000668524 14.5507 0 14V2C0 1.45 0.196546 0.979333 0.589638 0.588C0.98273 0.196666 1.45471 0.000666667 2.00557 0H18.0501C18.6017 0 19.074 0.196 19.4671 0.588C19.8602 0.98 20.0564 1.45067 20.0557 2V14C20.0557 14.55 19.8595 15.021 19.4671 15.413C19.0746 15.805 18.6023 16.0007 18.0501 16H2.00557ZM18.0501 4L10.5543 8.675C10.4708 8.725 10.3832 8.76267 10.2916 8.788C10.2 8.81333 10.1121 8.82567 10.0279 8.825C9.94362 8.82433 9.85604 8.812 9.76512 8.788C9.67421 8.764 9.5863 8.72633 9.50139 8.675L2.00557 4V14H18.0501V4ZM10.0279 7L18.0501 2H2.00557L10.0279 7ZM2.00557 4.25V2.775V2.8V2.788V4.25Z" fill="white"/>
</svg>
