<svg width="50" height="47" viewBox="0 0 50 47" fill="none" xmlns="http://www.w3.org/2000/svg">
<path d="M41.7838 20.1053L48 30.2895L41.7838 31.4211V38.2105H38.0541L30.5946 37.0789L29.3514 45H10.7027L8.21622 33.2531C4.38703 29.9534 2 25.2834 2 20.1053C2 10.1055 10.9054 2 21.8919 2C32.8784 2 41.7838 10.1055 41.7838 20.1053Z" stroke="#A81717" stroke-width="4" stroke-linecap="round" stroke-linejoin="round"/>
<path d="M15.6758 17.8422C15.6758 16.7232 16.0404 15.6293 16.7234 14.6989C17.4064 13.7684 18.3773 13.0432 19.5132 12.615C20.649 12.1868 21.8989 12.0747 23.1047 12.293C24.3105 12.5114 25.4182 13.0502 26.2875 13.8415C27.1569 14.6328 27.7489 15.6409 27.9888 16.7384C28.2286 17.8359 28.1055 18.9736 27.635 20.0074C27.1645 21.0413 26.3678 21.9249 25.3455 22.5466C24.3233 23.1683 23.1214 23.5001 21.892 23.5001V26.8949M21.892 33.6843V34.8159" stroke="#A81717" stroke-width="4" stroke-linecap="round" stroke-linejoin="round"/>
</svg>
