<svg width="19" height="17" viewBox="0 0 19 17" fill="none" xmlns="http://www.w3.org/2000/svg">
<path d="M12.592 10.9061L12.1357 11.3591C12.1357 11.3591 11.0497 12.4352 8.08644 9.49712C5.12316 6.55907 6.20919 5.48306 6.20919 5.48306L6.49599 5.19705C7.20497 4.49504 7.27216 3.36703 6.65343 2.54302L5.38991 0.859992C4.62377 -0.160023 3.14464 -0.295025 2.26719 0.574988L0.692791 2.13501C0.258578 2.56702 -0.032234 3.12502 0.00286399 3.74503C0.093116 5.33206 0.813126 8.74511 4.82834 12.7272C9.08723 16.9492 13.0834 17.1172 14.7169 16.9652C15.2344 16.9172 15.6836 16.6552 16.0457 16.2952L17.4696 14.8832C18.4323 13.9302 18.1616 12.2952 16.9301 11.6281L15.0148 10.5891C14.2065 10.1521 13.2238 10.2801 12.592 10.9061Z" fill="white"/>
</svg>
